<svg viewBox="0 0 19 19" fill="none" xmlns="http://www.w3.org/2000/svg">
  <g>
    <path fill-rule="evenodd" clip-rule="evenodd" d="M10.1116 1.21006C9.90805 1.19504 9.70406 1.18751 9.5 1.1875V0C9.73339 0.000113795 9.96669 0.00882804 10.1994 0.026125L10.1116 1.21006ZM12.4913 1.74444C12.1107 1.59755 11.7197 1.47887 11.3216 1.38937L11.5817 0.230375C12.0365 0.3325 12.4842 0.467875 12.9188 0.6365L12.4913 1.74444ZM14.1182 2.58756C13.9484 2.47433 13.7745 2.36739 13.5969 2.26694L14.1823 1.23381C14.5883 1.46387 14.9769 1.72345 15.3449 2.01044L14.6146 2.94738C14.4536 2.82177 14.288 2.70215 14.1182 2.58875V2.58756ZM16.2961 4.71319C16.0612 4.37947 15.802 4.06353 15.5206 3.76794L16.3804 2.94856C16.701 3.287 16.9979 3.64919 17.2674 4.02919L16.2961 4.71319ZM17.1796 6.31869C17.1016 6.13042 17.0169 5.94505 16.9254 5.76294L17.9859 5.22856C18.1956 5.64548 18.3742 6.07732 18.5202 6.52056L17.3921 6.89225C17.3283 6.69853 17.2574 6.50721 17.1796 6.31869ZM17.8089 9.29575C17.7993 8.88765 17.7596 8.48082 17.6902 8.07856L18.8599 7.87669C18.9394 8.33506 18.9858 8.80056 18.9976 9.26606L17.8101 9.29575H17.8089ZM17.6534 11.1221C17.6926 10.9202 17.7246 10.7196 17.7496 10.5165L18.9287 10.6626C18.8717 11.1259 18.7804 11.5843 18.6556 12.0341L17.5109 11.7171C17.5655 11.5211 17.613 11.3228 17.6534 11.1221ZM16.5229 13.9472C16.7414 13.6028 16.9337 13.2418 17.1 12.8689L18.1854 13.3499C17.9954 13.7774 17.7757 14.1882 17.5263 14.5825L16.5229 13.9472ZM15.3781 15.3781C15.523 15.2332 15.6619 15.0836 15.7938 14.9292L16.6939 15.7047C16.5414 15.8814 16.3826 16.0525 16.2177 16.2177L15.3781 15.3781Z" fill="black"/>
    <path fill-rule="evenodd" clip-rule="evenodd" d="M9.50054 1.1875C8.13358 1.1876 6.78774 1.52481 5.58223 2.16925C4.37672 2.8137 3.34875 3.7455 2.58935 4.88211C1.82996 6.01872 1.36259 7.32507 1.22864 8.68545C1.09469 10.0458 1.2983 11.4182 1.82142 12.6811C2.34455 13.944 3.17104 15.0584 4.22771 15.9256C5.28438 16.7928 6.5386 17.386 7.87928 17.6527C9.21997 17.9195 10.6057 17.8514 11.9138 17.4547C13.222 17.0579 14.412 16.3447 15.3787 15.3781L16.2182 16.2177C15.1135 17.323 13.7533 18.1387 12.258 18.5927C10.7626 19.0466 9.17845 19.1247 7.64574 18.8201C6.11302 18.5154 4.67912 17.8374 3.47106 16.8461C2.26301 15.8549 1.31811 14.5809 0.720083 13.1372C0.122057 11.6934 -0.110631 10.1245 0.0426374 8.56932C0.195905 7.01416 0.730396 5.52081 1.59875 4.22158C2.46711 2.92236 3.64252 1.85738 5.02084 1.121C6.39916 0.384625 7.93784 -0.000414119 9.50054 3.34232e-07V1.1875Z" fill="black"/>
    <path fill-rule="evenodd" clip-rule="evenodd" d="M8.90625 3.5625C9.06372 3.5625 9.21475 3.62506 9.32609 3.73641C9.43744 3.84776 9.5 3.99878 9.5 4.15625V10.3431L13.357 12.5471C13.4898 12.6272 13.5859 12.756 13.6249 12.9061C13.664 13.0561 13.6427 13.2155 13.5658 13.3501C13.4889 13.4847 13.3624 13.5839 13.2133 13.6265C13.0642 13.669 12.9044 13.6516 12.768 13.5779L8.61175 11.2029C8.52087 11.151 8.44533 11.076 8.39278 10.9855C8.34023 10.8949 8.31253 10.7922 8.3125 10.6875V4.15625C8.3125 3.99878 8.37506 3.84776 8.48641 3.73641C8.59776 3.62506 8.74878 3.5625 8.90625 3.5625Z" fill="black"/>
  </g>
</svg>
