<svg width="50" height="50" viewBox="0 0 50 50" fill="none" xmlns="http://www.w3.org/2000/svg">
  <g id="clock_svg">
    <g clip-path="url(#clip0)">
      <path fill-rule="evenodd" clip-rule="evenodd" d="M26.6165 3.18425C26.081 3.14471 25.5442 3.12491 25.0072 3.12488V0C25.6214 0.00029945 26.2353 0.0232308 26.8478 0.0687473L26.6165 3.18425ZM32.8788 4.59045C31.8771 4.20391 30.8483 3.89162 29.8008 3.65611L30.4851 0.606226C31.6819 0.874966 32.86 1.2312 34.0037 1.67493L32.8788 4.59045V4.59045ZM37.1599 6.80911C36.7131 6.51115 36.2555 6.22972 35.788 5.96539L37.3286 3.24675C38.397 3.85215 39.4195 4.53521 40.3879 5.29042L38.4661 7.75595C38.0424 7.42543 37.6067 7.11065 37.1599 6.81224V6.80911ZM42.8909 12.4026C42.2728 11.5245 41.5907 10.6931 40.8503 9.91524L43.1127 7.75907C43.9565 8.64966 44.7377 9.60275 45.447 10.6027L42.8909 12.4026V12.4026ZM45.2158 16.6275C45.0107 16.1321 44.7876 15.6443 44.5471 15.165L47.3376 13.7588C47.8894 14.8559 48.3594 15.9923 48.7438 17.1587L45.7751 18.1368C45.6072 17.627 45.4206 17.1236 45.2158 16.6275V16.6275ZM46.872 24.4615C46.8467 23.3877 46.7423 22.3171 46.5595 21.2585L49.6375 20.7273C49.8469 21.9335 49.9687 23.1585 50 24.3834L46.8751 24.4615H46.872ZM46.4626 29.2676C46.5657 28.7364 46.6501 28.2083 46.7157 27.6739L49.8187 28.0583C49.6686 29.2775 49.4284 30.4838 49.1 31.6675L46.0876 30.8332C46.2314 30.3176 46.3564 29.7957 46.4626 29.2676V29.2676ZM43.4877 36.7017C44.0627 35.7955 44.5689 34.8455 45.0064 33.8643L47.8626 35.1299C47.3626 36.2548 46.7845 37.336 46.1283 38.3735L43.4877 36.7017ZM40.4753 40.4672C40.8566 40.0859 41.2222 39.6922 41.5691 39.286L43.9377 41.3265C43.5366 41.7916 43.1186 42.2419 42.6846 42.6765L40.4753 40.4672V40.4672Z" fill="currentColor"/>
      <path fill-rule="evenodd" clip-rule="evenodd" d="M25.0088 3.12488C21.4117 3.12514 17.8701 4.01249 14.6979 5.70834C11.5256 7.40418 8.8205 9.85618 6.82217 12.8472C4.82385 15.8381 3.59398 19.2758 3.24149 22.8556C2.88901 26.4354 3.42479 30.0468 4.80138 33.3701C6.17797 36.6934 8.35288 39.6259 11.1335 41.9079C13.9141 44.1899 17.2145 45.751 20.7425 46.4528C24.2705 47.1546 27.9171 46.9756 31.3593 45.9315C34.8016 44.8874 37.9333 43.0106 40.4769 40.4672L42.6862 42.6765C39.7793 45.585 36.1998 47.7317 32.2649 48.9262C28.33 50.1207 24.1612 50.3263 20.1279 49.5246C16.0946 48.7229 12.3213 46.9388 9.14237 44.3302C5.96341 41.7217 3.47692 38.3694 1.90323 34.5702C0.329541 30.771 -0.28277 26.6423 0.120551 22.55C0.523872 18.4576 1.93037 14.5279 4.21543 11.109C6.50049 7.69013 9.59356 4.88766 13.2206 2.94989C16.8476 1.01213 20.8966 -0.00108975 25.0088 8.79523e-07V3.12488Z" fill="currentColor"/>
      <path fill-rule="evenodd" clip-rule="evenodd" d="M23.4448 9.37463C23.8591 9.37463 24.2566 9.53925 24.5496 9.83226C24.8426 10.1253 25.0072 10.5227 25.0072 10.9371V27.2177L35.1568 33.0175C35.5061 33.2282 35.7592 33.5672 35.8619 33.9621C35.9646 34.3569 35.9087 34.7763 35.7063 35.1305C35.5039 35.4847 35.171 35.7457 34.7787 35.8577C34.3863 35.9697 33.9658 35.9238 33.6069 35.7299L22.6698 29.4801C22.4307 29.3435 22.2319 29.1461 22.0936 28.908C21.9553 28.6698 21.8824 28.3993 21.8823 28.1239V10.9371C21.8823 10.5227 22.0469 10.1253 22.34 9.83226C22.633 9.53925 23.0304 9.37463 23.4448 9.37463V9.37463Z" fill="currentColor"/>
    </g>
    <defs>
      <clipPath id="clip0">
        <rect width="50" height="50" fill="white"/>
      </clipPath>
    </defs>
  </g>
</svg>
