<svg class="logo_bg Obse" data-observe=".logo_bg_activator" width="50" height="50" viewBox="0 0 50 50" fill="none" xmlns="http://www.w3.org/2000/svg">
  <g id="logo_sqared_white">
    <path fill-rule="evenodd" clip-rule="evenodd" d="M28.8365 11.9893C32.8665 13.8654 36.4101 17.0268 38.0603 21.0394C39.311 24.0792 39.4325 27.3275 38.3208 30.4368C37.6086 32.417 36.4275 34.2236 34.9336 35.7174C33.4397 37.2113 31.6332 38.4099 29.6703 39.2089C26.5089 40.4943 22.948 40.7549 19.5781 39.5389C15.1139 37.9235 11.7787 33.9456 10.0764 29.4293C9.32949 27.4491 8.89523 25.3646 8.80838 23.3323C8.72153 21.2826 8.98208 19.2849 9.62479 17.461C10.6844 14.5081 12.7862 12.0762 16.0866 10.8255C19.7692 9.45325 24.5808 10.0091 28.8365 11.9893ZM49.8896 28.8387C51.8351 12.4236 27.6032 -1.02115 12.213 2.59191C-0.936463 5.68385 -2.20451 20.3967 2.50289 32.2086C6.55022 42.3877 13.6895 48.6584 23.5733 48.6584C34.7773 48.6758 48.4826 40.6854 49.8896 28.8387Z" fill="url(#paint0_linear)"/>
    <path opacity="0.4" fill-rule="evenodd" clip-rule="evenodd" d="M21.2979 48.5542C12.5779 47.6683 6.22028 41.606 2.48563 32.226C-2.20441 20.3967 -0.936358 5.70124 12.1957 2.6093C20.4815 0.663801 31.338 3.66889 39.2937 9.41853C29.9484 2.71352 15.0792 2.24452 8.18315 10.7734C-1.7354 23.0544 4.86538 46.713 21.2979 48.5542Z" fill="url(#paint1_radial)"/>
    <path fill-rule="evenodd" clip-rule="evenodd" d="M39.4673 20.5877C35.4895 11.7809 24.5461 6.44814 15.1487 9.62694C0.0363259 14.7512 5.02166 37.854 17.8411 43.4473C30.7473 49.0753 45.9639 35.04 39.4673 20.5877ZM37.5392 21.2652C42.0903 32.3996 29.8962 42.683 19.7518 39.0352C8.61735 35.0226 4.81321 15.6892 16.2777 11.364C23.1564 8.77578 34.2736 13.2574 37.5392 21.2652Z" fill="#000F41"/>
    <path class="logo_alt_color" fill-rule="evenodd" clip-rule="evenodd" d="M37.5334 21.3569C34.2534 13.4699 23.129 9.05598 16.2739 11.6051C4.81987 15.8651 8.62054 34.9238 19.7449 38.8758C29.8974 42.4686 42.0803 32.3404 37.5334 21.3569ZM49.8899 28.8161C48.4842 40.5011 34.774 48.371 23.5629 48.3539C13.6707 48.3539 6.53797 42.1777 2.49434 32.1351C-2.20878 20.4844 -0.941888 5.97648 12.2129 2.9312C27.5892 -0.61023 51.8337 12.6487 49.8899 28.8161Z" fill="white"/>
  </g>
  <path data-letter="e" fill-rule="evenodd" clip-rule="evenodd" d="M15.7042 25.5378C15.7042 25.59 15.6695 25.6073 15.6521 25.6073C15.5479 25.6073 14.4015 25.6073 14.3841 25.6073C14.4015 25.6594 14.4188 25.6942 14.4362 25.7289C14.4536 25.7637 14.4883 25.7984 14.5231 25.8158C14.5578 25.8331 14.5925 25.8505 14.6446 25.8679C14.6968 25.8853 14.7489 25.8853 14.801 25.8853H14.8183C14.8705 25.8853 14.9052 25.8853 14.9399 25.8679C14.9747 25.8679 15.0094 25.8505 15.0442 25.8331C15.0789 25.8158 15.0963 25.7984 15.1136 25.781C15.131 25.7637 15.1484 25.7463 15.1658 25.7289C15.1831 25.7116 15.2005 25.7116 15.2179 25.7116H15.6174H15.6347C15.6695 25.7289 15.6695 25.7463 15.6695 25.781C15.6347 25.8505 15.6 25.9026 15.5653 25.9547C15.5132 26.0068 15.461 26.059 15.4089 26.0937C15.3395 26.1458 15.2526 26.1632 15.1484 26.1979C15.0615 26.2153 14.9399 26.2327 14.8357 26.2327H14.8183C14.6794 26.2327 14.5578 26.2153 14.4362 26.1805C14.3146 26.1458 14.2278 26.0937 14.1409 26.0242C14.0714 25.9547 14.0019 25.8679 13.9672 25.781C13.9325 25.6942 13.9151 25.5726 13.9151 25.451C13.9151 25.3294 13.9325 25.2252 13.9672 25.121C14.0019 25.0167 14.0714 24.9473 14.1409 24.8778C14.2104 24.8083 14.3146 24.7562 14.4362 24.7215C14.5404 24.6867 14.6794 24.6693 14.8183 24.6693H14.8357C14.9747 24.6693 15.0963 24.6867 15.2179 24.7215C15.3395 24.7562 15.4263 24.8083 15.5132 24.8778C15.5826 24.9473 15.6521 25.0341 15.6869 25.121C15.7216 25.2078 15.739 25.3294 15.739 25.451C15.739 25.451 15.739 25.4684 15.739 25.4857C15.7042 25.5205 15.7042 25.5378 15.7042 25.5378ZM14.4536 25.1731C14.4362 25.2078 14.4015 25.2252 14.4015 25.2599H15.2005C15.1831 25.2252 15.1658 25.1904 15.1484 25.1557C15.131 25.121 15.0963 25.1036 15.0615 25.0862C15.0268 25.0689 14.992 25.0515 14.9573 25.0515C14.9226 25.0341 14.8705 25.0341 14.8183 25.0341H14.801C14.7489 25.0341 14.7141 25.0341 14.662 25.0515C14.6273 25.0689 14.5925 25.0689 14.5578 25.0862C14.5057 25.121 14.4883 25.1557 14.4536 25.1731Z" fill="#000F41"/>
  <path data-letter="n" fill-rule="evenodd" clip-rule="evenodd" d="M15.9648 24.7388H16.2948C16.3296 24.7388 16.3469 24.7562 16.3469 24.791V24.9125H16.3643C16.3991 24.8778 16.4512 24.8431 16.4859 24.8083C16.538 24.7736 16.5728 24.7562 16.6249 24.7388C16.677 24.7215 16.7291 24.7041 16.7812 24.7041C16.8333 24.7041 16.8854 24.6867 16.9549 24.6867C17.0418 24.6867 17.146 24.7041 17.2155 24.7215C17.2849 24.7388 17.3544 24.7736 17.4239 24.8257C17.476 24.8778 17.5107 24.9299 17.5455 24.9994C17.5629 25.0689 17.5802 25.1384 17.5802 25.2252V26.1458C17.5802 26.1806 17.5629 26.1979 17.5281 26.1979H17.1807C17.146 26.1979 17.1286 26.1806 17.1286 26.1458V25.3815C17.1286 25.3294 17.1286 25.2773 17.1112 25.2426C17.0939 25.2078 17.0765 25.1731 17.0418 25.1557C17.007 25.1384 16.9723 25.121 16.9375 25.1036C16.8854 25.0862 16.8507 25.0863 16.7812 25.0863C16.7291 25.0863 16.6596 25.0863 16.6075 25.121C16.5554 25.1384 16.5207 25.1557 16.4685 25.2078C16.4338 25.2426 16.3991 25.2773 16.3817 25.3294C16.3643 25.3815 16.3469 25.4337 16.3469 25.5031V26.1806C16.3469 26.2153 16.3296 26.2327 16.2948 26.2327H15.9474C15.9127 26.2327 15.8953 26.2153 15.8953 26.1806V24.8257C15.9127 24.7736 15.9474 24.7388 15.9648 24.7388Z" fill="#000F41"/>
  <path data-letter="c" fill-rule="evenodd" clip-rule="evenodd" d="M18.3097 25.6595C18.3271 25.7116 18.3618 25.7637 18.3966 25.7985C18.4313 25.8332 18.4834 25.8679 18.5355 25.8853C18.5877 25.9027 18.6571 25.92 18.7266 25.92H18.744C18.7961 25.92 18.8482 25.92 18.9003 25.9027C18.9524 25.8853 18.9872 25.8679 19.0219 25.8506C19.0566 25.8332 19.074 25.7985 19.0914 25.7811C19.1088 25.7463 19.1261 25.7116 19.1435 25.6769C19.1435 25.6595 19.1782 25.6421 19.1956 25.6421H19.5778C19.5778 25.6421 19.5778 25.6421 19.5951 25.6421C19.6299 25.6421 19.6472 25.6769 19.6299 25.7116C19.6125 25.7985 19.5778 25.8679 19.543 25.9374C19.4909 26.0069 19.4388 26.059 19.3693 26.1111C19.2998 26.1632 19.1956 26.2153 19.0914 26.2327C18.9872 26.2674 18.8656 26.2674 18.744 26.2674H18.7266C18.5877 26.2674 18.4661 26.2501 18.3445 26.2153C18.2229 26.1806 18.136 26.1285 18.0492 26.059C17.9797 25.9895 17.9102 25.9027 17.8755 25.8158C17.8407 25.729 17.8234 25.6074 17.8234 25.4858C17.8234 25.3642 17.8407 25.26 17.8755 25  .1558C17.9102 25.0515 17.9797 24.9821 18.0492 24.9126C18.1187 24.8431 18.2229 24.791 18.3445 24.7562C18.4487 24.7215 18.5877 24.7041 18.7266 24.7041H18.744C18.8656 24.7041 18.9698 24.7215 19.074 24.7389C19.1782 24.7562 19.2651 24.8084 19.3346 24.8431C19.4041 24.8778 19.4562 24.9299 19.4909 24.9994C19.543 25.0515 19.5778 25.121 19.5951 25.1905V25.2079C19.5951 25.2426 19.5778 25.26 19.543 25.26H19.1609C19.1435 25.26 19.1261 25.2426 19.1088 25.2252C19.0914 25.1905 19.074 25.1731 19.0566 25.1558C19.0393 25.1384 19.0045 25.121 18.9872 25.1036C18.9524 25.0863 18.9177 25.0689 18.8829 25.0689C18.8482 25.0515 18.7961 25.0515 18.744 25.0515H18.7266C18.6571 25.0515 18.5877 25.0689 18.5355 25.0863C18.4834 25.1036 18.4313 25.1384 18.3966 25.1731C18.3618 25.2079 18.3271 25.26 18.3097 25.3121C18.2924 25.3642 18.275 25.4337 18.275 25.5032C18.2924 25.5379 18.2924 25.6074 18.3097 25.6595Z" fill="#000F41"/>
  <path data-letter="u" fill-rule="evenodd" clip-rule="evenodd" d="M21.4712 26.2153H21.1238C21.0891 26.2153 21.0717 26.198 21.0717 26.1632V26.0243H21.0543C21.0196 26.059 20.9675 26.0937 20.9328 26.1285C20.8806 26.1632 20.8459 26.1806 20.7938 26.198C20.7417 26.2153 20.6896 26.2327 20.6375 26.2327C20.5854 26.2327 20.5332 26.2501 20.4638 26.2501C20.3769 26.2501 20.2727 26.2327 20.2032 26.2153C20.1337 26.198 20.0643 26.1632 19.9948 26.1111C19.9427 26.059 19.9079 26.0069 19.8732 25.9374C19.8558 25.8679 19.8384 25.7985 19.8384 25.7116V24.791C19.8384 24.7562 19.8558 24.7389 19.8905 24.7389H20.238C20.2727 24.7389 20.2901 24.7562 20.2901 24.791V25.5553C20.2901 25.6074 20.2901 25.6595 20.3074 25.6942C20.3248 25.729 20.3422 25.7637 20.3769 25.7811C20.4117 25.7985 20.4464 25.8158 20.4811 25.8332C20.5332 25.8506 20.568 25.8506 20.6375 25.8506C20.6896 25.8506 20.7591 25.8506 20.8112 25.8158C20.8633 25.7985 20.898 25.7811 20.9501 25.729C20.9849 25.6942 21.0196 25.6595 21.037 25.6074C21.0543 25.5553 21.0717 25.5032 21.0717 25.4337V24.7562C21.0717 24.7215 21.0891 24.7041 21.1238 24.7041H21.4712C21.506 24.7041 21.5233 24.7215 21.5233 24.7562V26.1111C21.5233 26.1806 21.4886 26.2153 21.4712 26.2153Z" fill="#000F41"/>
  <path data-letter="e" fill-rule="evenodd" clip-rule="evenodd" d="M23.5556 25.5378C23.5556 25.59 23.5209 25.6073 23.5035 25.6073C23.3993 25.6073 22.2528 25.6073 22.2355 25.6073C22.2528 25.6594 22.2702 25.6942 22.2876 25.7289C22.305 25.7637 22.3397 25.7984 22.3744 25.8158C22.4092 25.8331 22.4439 25.8505 22.496 25.8679C22.5481 25.8853 22.6002 25.8853 22.6524 25.8853H22.6697C22.7218 25.8853 22.7566 25.8853 22.7913 25.8679C22.8261 25.8679 22.8608 25.8505 22.8955 25.8331C22.9303 25.8158 22.9476 25.7984 22.965 25.781C22.9824 25.7637 22.9998 25.7463 23.0171 25.7289C23.0345 25.7116 23.0519 25.7116 23.0692 25.7116H23.4688H23.4861C23.5209 25.7289 23.5209 25.7463 23.5209 25.781C23.4861 25.8505 23.4514 25.9026 23.4166 25.9547C23.3645 26.0068 23.3124 26.059 23.2603 26.0937C23.1908 26.1458 23.104 26.1632 22.9998 26.1979C22.9129 26.2153 22.7913 26.2327 22.6871 26.2327H22.6697C22.5308 26.2327 22.4092 26.2153 22.2876 26.1805C22.166 26.1458 22.0791 26.0937 21.9923 26.0242C21.9228 25.9547 21.8533 25.8679 21.8186 25.781C21.7838 25.6942 21.7665 25.5726 21.7665 25.451C21.7665 25.3294 21.7838 25.2252 21.8186 25.121C21.8533 25.0167 21.9228 24.9473 21.9923 24.8778C22.0618 24.8083 22.166 24.7562 22.2876 24.7215C22.3918 24.6867 22.5308 24.6693 22.6697 24.6693H22.6871C22.8261 24.6693 22.9476 24.6867 23.0692 24.7215C23.1908 24.7562 23.2777 24.8083 23.3645 24.8778C23.434 24.9473 23.5035 25.0341 23.5382 25.121C23.573 25.2078 23.5903 25.3294 23.5903 25.451C23.5903 25.451 23.5903 25.4684 23.5903 25.4857C23.5556 25.5205 23.5556 25.5378 23.5556 25.5378ZM22.3049 25.1731C22.2876 25.2078 22.2528 25.2252 22.2528 25.2599H23.0519C23.0345 25.2252 23.0171 25.1904 22.9998 25.1557C22.9824 25.121 22.9476 25.1036 22.9129 25.0862C22.8782 25.0689 22.8434 25.0515 22.8087 25.0515C22.7739 25.0341 22.7218 25.0341 22.6697 25.0341H22.6524C22.6002 25.0341 22.5655 25.0341 22.5134 25.0515C22.4787 25.0689 22.4439 25.0689 22.4092 25.0862C22.3571 25.121 22.3397 25.1557 22.3049 25.1731Z" fill="#000F41"/>
  <path data-letter="s" fill-rule="evenodd" clip-rule="evenodd" d="M25.3447 25.1905H24.98C24.9626 25.1905 24.9278 25.1731 24.9278 25.1557C24.9278 25.1383 24.9105 25.121 24.8931 25.1036C24.8757 25.0862 24.8584 25.0689 24.8236 25.0515C24.7889 25.0341 24.7541 25.0341 24.7194 25.0168C24.6673 25.0168 24.6326 24.9994 24.5804 24.9994C24.5283 24.9994 24.4936 24.9994 24.4415 25.0168C24.4067 25.0168 24.372 25.0341 24.3546 25.0341C24.3199 25.0515 24.3025 25.0689 24.2852 25.0862C24.2678 25.1036 24.2678 25.121 24.2678 25.1383C24.2678 25.1557 24.2678 25.1731 24.2852 25.1905C24.2852 25.2078 24.3025 25.2078 24.3199 25.2252C24.3373 25.2252 24.3546 25.2426 24.372 25.2426C24.3894 25.2426 24.4241 25.2599 24.4589 25.2599C24.5457 25.2773 24.6499 25.2773 24.7368 25.2947C24.8236 25.2947 24.8931 25.3121 24.98 25.3294C25.0494 25.3294 25.1189 25.3468 25.1884 25.3642C25.2579 25.3815 25.31 25.4163 25.3447 25.451C25.3968 25.4858 25.4142 25.5379 25.449 25.59C25.4663 25.6421 25.4837 25.7116 25.4837 25.781C25.4837 25.8679 25.4663 25.9547 25.4316 26.0069C25.3968 26.0763 25.3274 26.1111 25.2579 26.1632C25.1884 26.1979 25.0842 26.2327 24.98 26.25C24.8757 26.2674 24.7541 26.2674 24.6152 26.2674C24.4936 26.2674 24.372 26.2674 24.2678 26.25C24.1636 26.2327 24.0767 26.2153 23.9899 26.1632C23.9204 26.1284 23.8683 26.0763 23.8162 26.0242C23.7814 25.9721 23.7467 25.9026 23.7293 25.8158C23.7293 25.8158 23.7293 25.8158 23.7293 25.7984C23.7293 25.7637 23.7467 25.7463 23.7814 25.7463H24.1636C24.1809 25.7463 24.2157 25.7637 24.2157 25.781C24.2157 25.8158 24.233 25.8332 24.2504 25.8505C24.2678 25.8679 24.2852 25.8853 24.3199 25.9026C24.3546 25.92 24.3894 25.9374 24.4415 25.9374C24.4936 25.9374 24.5457 25.9547 24.5978 25.9547C24.6673 25.9547 24.7194 25.9547 24.7541 25.9374C24.8063 25.9374 24.841 25.92 24.8584 25.9026C24.8931 25.8853 24.9105 25.8679 24.9278 25.8505C24.9452 25.8332 24.9452 25.8158 24.9452 25.781C24.9452 25.7637 24.9452 25.7463 24.9278 25.7289C24.9278 25.7116 24.9105 25.6942 24.8931 25.6942C24.8757 25.6768 24.8584 25.6768 24.841 25.6768C24.8236 25.6768 24.7889 25.6595 24.7541 25.6595L24.2678 25.59C24.1983 25.5726 24.1288 25.5726 24.0593 25.5552C23.9899 25.5379 23.9378 25.5205 23.903 25.4858C23.8509 25.451 23.8162 25.4163 23.7988 25.3642C23.7814 25.3121 23.7641 25.2599 23.7641 25.1731C23.7641 25.1036 23.7814 25.0341 23.8162 24.982C23.8509 24.9299 23.903 24.8778 23.9725 24.8431C24.042 24.8083 24.1288 24.7736 24.2157 24.7562C24.3199 24.7388 24.4415 24.7215 24.5631 24.7215C24.6847 24.7215 24.8063 24.7388 24.9105 24.7562C25.0147 24.7736 25.1015 24.8083 25.171 24.8431C25.2231 24.8778 25.2753 24.9125 25.31 24.9646C25.3447 25.0168 25.3621 25.0689 25.3795 25.1383C25.3795 25.1383 25.3795 25.1383 25.3795 25.1557C25.3968 25.1731 25.3621 25.1905 25.3447 25.1905Z" fill="#000F41"/>
  <path data-letter="t" fill-rule="evenodd" clip-rule="evenodd" d="M26.2306 25.8679C26.248 25.8679 26.2827 25.8679 26.3174 25.8679H26.3348H26.3695C26.4043 25.8679 26.4217 25.8853 26.4217 25.92V26.1806C26.4217 26.2153 26.4043 26.2327 26.3695 26.2327H26.3348H26.3001C26.2827 26.2327 26.2653 26.2327 26.248 26.2327C26.2306 26.2327 26.2132 26.2327 26.1958 26.2327C26.0916 26.2327 26.0221 26.2327 25.9527 26.2153C25.8832 26.1979 25.8311 26.1806 25.779 26.1458C25.7268 26.1111 25.7095 26.059 25.6921 26.0069C25.6747 25.9547 25.6747 25.8853 25.6747 25.8158V24.4957C25.6747 24.4609 25.6921 24.4435 25.7269 24.4435H26.0743C26.109 24.4435 26.1264 24.4609 26.1264 24.4957V24.7388H26.4564C26.4911 24.7388 26.5085 24.7562 26.5085 24.7909V25.0168C26.5085 25.0515 26.4911 25.0689 26.4564 25.0689H26.1264V25.7289C26.1264 25.7637 26.1264 25.781 26.1437 25.7984C26.1437 25.8158 26.1611 25.8332 26.1785 25.8332C26.1958 25.8505 26.2132 25.8679 26.2306 25.8679Z" fill="#000F41"/>
  <path data-letter="a" fill-rule="evenodd" clip-rule="evenodd" d="M28.2802 26.2153H27.9502C27.9154 26.2153 27.8981 26.198 27.8981 26.1632V25.9895C27.8633 26.0243 27.8286 26.0764 27.7765 26.0937C27.7243 26.1285 27.6896 26.1459 27.6201 26.1806C27.568 26.198 27.4985 26.2153 27.4464 26.2327C27.3769 26.2501 27.3075 26.2501 27.238 26.2501C27.1511 26.2501 27.0817 26.2327 26.9948 26.2153C26.9253 26.198 26.8558 26.1632 26.8037 26.1111C26.7516 26.0764 26.7169 26.0243 26.6821 25.9722C26.6648 25.92 26.6474 25.8506 26.6474 25.7811C26.6474 25.7116 26.6648 25.6421 26.6821 25.59C26.6995 25.5379 26.7343 25.4858 26.7864 25.451C26.8211 25.4163 26.8732 25.3816 26.9427 25.3642C26.9948 25.3468 27.0643 25.3295 27.1164 25.3295C27.2727 25.3295 27.5506 25.2947 27.707 25.2773C27.7417 25.2773 27.7591 25.2773 27.7765 25.26C27.7938 25.26 27.8112 25.2426 27.8286 25.2426C27.8459 25.2252 27.8459 25.2252 27.8633 25.2079C27.8633 25.1905 27.8807 25.1731 27.8807 25.1558C27.8807 25.1384 27.8807 25.121 27.8633 25.1036C27.8459 25.0863 27.8286 25.0689 27.7938 25.0515C27.7765 25.0342 27.7417 25.0342 27.707 25.0342C27.6722 25.0342 27.6201 25.0168 27.568 25.0168C27.5159 25.0168 27.4812 25.0168 27.4291 25.0342C27.3943 25.0342 27.3596 25.0515 27.3248 25.0689C27.3075 25.0863 27.2901 25.0863 27.2727 25.1036C27.2554 25.121 27.2554 25.1384 27.238 25.1558C27.238 25.1731 27.2032 25.1905 27.1859 25.1905H26.8037C26.769 25.1905 26.7516 25.1558 26.7516 25.121C26.769 25.0515 26.7864 24.9994 26.8211 24.9473C26.8558 24.8952 26.908 24.8605 26.9601 24.8257C27.0295 24.791 27.1164 24.7562 27.2206 24.7389C27.3248 24.7215 27.4464 24.7041 27.5506 24.7041C27.6722 24.7041 27.7765 24.7041 27.8633 24.7215C27.9675 24.7389 28.0544 24.7562 28.1239 24.791C28.1933 24.8257 28.2455 24.8605 28.2802 24.9299C28.3149 24.9821 28.3323 25.0515 28.3323 25.1384V26.1459C28.3323 26.1806 28.2976 26.2153 28.2802 26.2153ZM27.8459 25.729C27.8633 25.6942 27.8807 25.6421 27.8807 25.5726V25.5032C27.8807 25.5032 27.8633 25.5205 27.8459 25.5205C27.8286 25.5205 27.8286 25.5205 27.8112 25.5379C27.7938 25.5379 27.7938 25.5379 27.7765 25.5379C27.7591 25.5379 27.7591 25.5379 27.7417 25.5379L27.3248 25.59C27.2901 25.59 27.2554 25.6074 27.238 25.6074C27.2206 25.6074 27.1859 25.6248 27.1685 25.6421C27.1511 25.6595 27.1338 25.6769 27.1338 25.6942C27.1164 25.7116 27.1164 25.7463 27.1164 25.7637C27.1164 25.7985 27.1164 25.8332 27.1338 25.8506C27.1511 25.8679 27.1685 25.8853 27.1859 25.9027C27.2032 25.92 27.238 25.92 27.2554 25.9374C27.2901 25.9374 27.3248 25.9548 27.3596 25.9548C27.4291 25.9548 27.4985 25.9374 27.568 25.92C27.6201 25.9027 27.6896 25.8679 27.7243 25.8332C27.7765 25.8158 27.8112 25.7637 27.8459 25.729Z" fill="#000F41"/>
  <path data-letter="dot" fill-rule="evenodd" clip-rule="evenodd" d="M28.8188 25.6768C28.8883 25.6768 28.9751 25.7116 29.0099 25.7637C29.0272 25.7811 29.062 25.8158 29.062 25.8506C29.0793 25.8853 29.0793 25.92 29.0793 25.9548C29.0793 25.9895 29.0793 26.0243 29.062 26.059C29.0446 26.0937 29.0272 26.1285 29.0099 26.1458C28.9925 26.1632 28.9577 26.198 28.923 26.2153C28.8883 26.2327 28.8535 26.2327 28.8188 26.2327C28.784 26.2327 28.7493 26.2327 28.7146 26.2153C28.6798 26.198 28.6451 26.1806 28.6277 26.1458C28.6103 26.1285 28.5756 26.0937 28.5756 26.059C28.5582 26.0243 28.5582 25.9895 28.5582 25.9548C28.5582 25.92 28.5582 25.8853 28.5756 25.8506C28.593 25.8158 28.6103 25.7811 28.6277 25.7637C28.6451 25.7463 28.6798 25.7116 28.7146 25.6942C28.7493 25.6769 28.784 25.6768 28.8188 25.6768Z" fill="#000F41"/>
  <path data-letter="c" fill-rule="evenodd" clip-rule="evenodd" d="M29.8262 25.6595C29.8436 25.7116 29.8784 25.7637 29.9131 25.7985C29.9478 25.8332 29.9999 25.8679 30.0521 25.8853C30.1042 25.9027 30.1736 25.92 30.2431 25.92H30.2605C30.3126 25.92 30.3647 25.92 30.4168 25.9027C30.4689 25.8853 30.5037 25.8679 30.5384 25.8506C30.5732 25.8332 30.5905 25.7985 30.6079 25.7811C30.6253 25.7463 30.6426 25.7116 30.66 25.6769C30.66 25.6595 30.6948 25.6421 30.7121 25.6421H31.0769C31.0769 25.6421 31.0769 25.6421 31.0943 25.6421C31.129 25.6421 31.1464 25.6769 31.129 25.7116C31.1116 25.7985 31.0769 25.8679 31.0422 25.9374C30.99 26.0069 30.9379 26.059 30.8685 26.1111C30.799 26.1632 30.6947 26.198 30.5905 26.2327C30.4863 26.2674 30.3647 26.2674 30.2431 26.2674H30.2258C30.0868 26.2674 29.9652 26.2501 29.8436 26.2153C29.722 26.1806 29.6352 26.1285 29.5483 26.059C29.4788 25.9895 29.4094 25.9027 29.3746 25.8158C29.3399 25.729 29.3225 25.6074 29.3225 25.4858C29.3225 25.3642 29.3399 25.26 29.3746 25.1558C29.4094 25.0515 29.4788 24.9821 29.5483 24.9126C29.6178 24.8431 29.722 24.791 29.8436 24.7562C29.9478 24.7215 30.0868 24.7041 30.2258 24.7041H30.2431C30.3647 24.7041 30.4689 24.7215 30.5732 24.7389C30.6774 24.7562 30.7642 24.8084 30.8337 24.8431C30.9032 24.8778 30.9553 24.9299 30.99 24.9994C31.0421 25.0515 31.0769 25.121 31.0943 25.1905V25.2079C31.0943 25.2426 31.0769 25.26 31.0422 25.26H30.66C30.6426 25.26 30.6253 25.2426 30.6079 25.2252C30.5905 25.1905 30.5732 25.1731 30.5558 25.1558C30.5384 25.1384 30.5037 25.121 30.4863 25.1036C30.4516 25.0863 30.4168 25.0689 30.3821 25.0689C30.3473 25.0515 30.2952 25.0515 30.2431 25.0515H30.2258C30.1563 25.0515 30.0868 25.0689 30.0347 25.0863C29.9826 25.1036 29.9305 25.1384 29.8957 25.1731C29.861 25.2079 29.8262 25.26 29.8089 25.2947C29.7915 25.3468 29.7741 25.4163 29.7741 25.4858C29.7915 25.5379 29.8089 25.6074 29.8262 25.6595Z" fill="#000F41"/>
  <path data-letter="o" fill-rule="evenodd" clip-rule="evenodd" d="M31.8758 24.7562C31.9801 24.7215 32.119 24.7041 32.258 24.7041C32.3969 24.7041 32.5359 24.7215 32.6401 24.7562C32.7617 24.791 32.8486 24.8431 32.9354 24.9126C33.0223 24.9821 33.0744 25.0689 33.1091 25.1558C33.1439 25.2426 33.1612 25.3642 33.1612 25.4858C33.1612 25.6074 33.1439 25.7116 33.1091 25.8158C33.0744 25.92 33.0049 25.9895 32.9354 26.059C32.8486 26.1285 32.7617 26.1806 32.6401 26.2153C32.5359 26.2501 32.3969 26.2674 32.258 26.2674C32.119 26.2674 31.9801 26.2501 31.8758 26.2153C31.7542 26.1806 31.6674 26.1285 31.5806 26.059C31.4937 25.9895 31.4416 25.9027 31.4068 25.8158C31.3721 25.729 31.3547 25.6074 31.3547 25.4858C31.3547 25.3642 31.3721 25.26 31.4068 25.1558C31.4416 25.0515 31.5111 24.9821 31.5806 24.9126C31.65 24.8431 31.7542 24.791 31.8758 24.7562ZM32.0669 25.8679C32.119 25.8853 32.1885 25.9027 32.258 25.9027C32.3275 25.9027 32.3969 25.8853 32.4491 25.8679C32.5012 25.8506 32.5533 25.8158 32.588 25.7811C32.6228 25.7463 32.6575 25.6942 32.6749 25.6421C32.6922 25.59 32.7096 25.5205 32.7096 25.451C32.7096 25.3816 32.6922 25.3121 32.6749 25.26C32.6575 25.2079 32.6228 25.1558 32.588 25.121C32.5533 25.0863 32.5012 25.0515 32.4491 25.0342C32.3969 25.0168 32.3275 24.9994 32.258 24.9994C32.1885 24.9994 32.119 25.0168 32.0669 25.0342C32.0148 25.0515 31.9627 25.0863 31.928 25.121C31.8932 25.1558 31.8585 25.2079 31.8411 25.26C31.8237 25.3121 31.8064 25.3816 31.8064 25.451C31.8064 25.5205 31.8237 25.59 31.8411 25.6421C31.8585 25.6942 31.8932 25.7463 31.928 25.7811C31.9627 25.8158 32.0148 25.8506 32.0669 25.8679Z" fill="#000F41"/>
  <path data-letter="m" fill-rule="evenodd" clip-rule="evenodd" d="M33.4391 24.7562H33.7692C33.8039 24.7562 33.8213 24.7736 33.8213 24.8084V24.9473H33.8387C33.8734 24.9126 33.9081 24.8778 33.9429 24.8605C33.9776 24.8257 34.0297 24.8084 34.0645 24.791C34.1166 24.7736 34.1687 24.7562 34.2208 24.7389C34.2729 24.7215 34.3424 24.7215 34.3945 24.7215C34.4466 24.7215 34.4987 24.7215 34.5508 24.7389C34.6029 24.7389 34.655 24.7562 34.6898 24.7736C34.7419 24.791 34.7766 24.8084 34.8114 24.8431C34.8461 24.8778 34.8809 24.9126 34.8982 24.9473C34.933 24.9126 34.9677 24.8778 35.0024 24.8431C35.0372 24.8084 35.0893 24.791 35.1414 24.7736C35.1935 24.7562 35.2456 24.7389 35.3151 24.7215C35.3846 24.7041 35.4367 24.7041 35.5062 24.7041C35.593 24.7041 35.6799 24.7215 35.7494 24.7389C35.8188 24.7562 35.8883 24.791 35.9404 24.8431C35.9925 24.8952 36.0273 24.9473 36.062 25.0168C36.0794 25.0863 36.0968 25.1558 36.0968 25.2426V26.1285C36.0968 26.1632 36.0794 26.1806 36.0447 26.1806H35.6973C35.6625 26.1806 35.6451 26.1632 35.6451 26.1285V25.3642C35.6451 25.3121 35.6451 25.2773 35.6278 25.2426C35.6104 25.2079 35.593 25.1731 35.5757 25.1558C35.5583 25.1384 35.5236 25.121 35.4888 25.1036C35.4541 25.0863 35.402 25.0863 35.3499 25.0863C35.2977 25.0863 35.2456 25.0863 35.1935 25.121C35.1588 25.1384 35.1067 25.1558 35.0719 25.1905C35.0372 25.2252 35.0198 25.26 35.0024 25.2947C34.9851 25.3295 34.9851 25.3816 34.9851 25.451V26.1459C34.9851 26.1806 34.9677 26.198 34.933 26.198H34.5856C34.5508 26.198 34.5335 26.1806 34.5335 26.1459V25.3816C34.5335 25.3295 34.5335 25.2947 34.5161 25.26C34.4987 25.2252 34.4813 25.1905 34.464 25.1731C34.4292 25.1558 34.4119 25.1384 34.3598 25.121C34.325 25.1036 34.2729 25.1036 34.2208 25.1036C34.1687 25.1036 34.1166 25.1036 34.0645 25.1384C34.0297 25.1558 33.9776 25.1731 33.9429 25.2079C33.9081 25.2426 33.8908 25.2773 33.8734 25.3121C33.856 25.3468 33.856 25.3989 33.856 25.4684V26.1632C33.856 26.198 33.8386 26.2153 33.8039 26.2153H33.4565C33.4218 26.2153 33.4044 26.198 33.4044 26.1632V24.8084C33.387 24.7736 33.4044 24.7562 33.4391 24.7562Z" fill="#000F41"/>
  <!-- <defs>
    <linearGradient id="paint0_linear" x1="10.7987" y1="11.2231" x2="35.5917" y2="37.7881" gradientUnits="userSpaceOnUse">
      <stop stop-color="#2D50FA"/>
      <stop offset="0.15" stop-color="#2D50FA"/>
      <stop offset="0.3" stop-color="#2D50FA"/>
      <stop offset="1" stop-color="#FF009B"/>
    </linearGradient>
    <radialGradient id="paint1_radial" cx="0" cy="0" r="1" gradientUnits="userSpaceOnUse" gradientTransform="translate(19.9348 25.2717) scale(24.913)">
      <stop stop-color="white"/>
      <stop offset="0.32" stop-color="#909090"/>
      <stop offset="1" stop-color="white"/>
    </radialGradient>
  </defs> -->
</svg>
