<svg width="288" height="269" viewBox="0 0 288 269" fill="none" xmlns="http://www.w3.org/2000/svg">
  <path fill-rule="evenodd" clip-rule="evenodd" d="M90.4095 135.508C90.4095 135.808 90.2095 135.908 90.1095 135.908C89.5095 135.908 82.9095 135.908 82.8095 135.908C82.9095 136.208 83.0095 136.408 83.1095 136.608C83.2095 136.808 83.4095 137.008 83.6095 137.108C83.8095 137.208 84.0095 137.308 84.3095 137.408C84.6095 137.508 84.9095 137.508 85.2095 137.508H85.3095C85.6095 137.508 85.8095 137.508 86.0095 137.408C86.2095 137.408 86.4095 137.308 86.6095 137.208C86.8095 137.108 86.9095 137.008 87.0095 136.908C87.1095 136.808 87.2095 136.708 87.3095 136.608C87.4095 136.508 87.5095 136.508 87.6095 136.508H89.9095H90.0095C90.2095 136.608 90.2095 136.708 90.2095 136.908C90.0095 137.308 89.8095 137.608 89.6095 137.908C89.3095 138.208 89.0095 138.508 88.7095 138.708C88.3095 139.008 87.8095 139.108 87.2095 139.308C86.7095 139.408 86.0095 139.508 85.4095 139.508H85.3095C84.5095 139.508 83.8095 139.408 83.1095 139.208C82.4095 139.008 81.9095 138.708 81.4095 138.308C81.0095 137.908 80.6095 137.408 80.4095 136.908C80.2095 136.408 80.1095 135.708 80.1095 135.008C80.1095 134.308 80.2095 133.708 80.4095 133.108C80.6095 132.508 81.0095 132.108 81.4095 131.708C81.8095 131.308 82.4095 131.008 83.1095 130.808C83.7095 130.608 84.5095 130.508 85.3095 130.508H85.4095C86.2095 130.508 86.9095 130.608 87.6095 130.808C88.3095 131.008 88.8095 131.308 89.3095 131.708C89.7095 132.108 90.1095 132.608 90.3095 133.108C90.5095 133.608 90.6095 134.308 90.6095 135.008C90.6095 135.008 90.6095 135.108 90.6095 135.208C90.4095 135.408 90.4095 135.508 90.4095 135.508ZM83.2095 133.408C83.1095 133.608 82.9095 133.708 82.9095 133.908H87.5095C87.4095 133.708 87.3095 133.508 87.2095 133.308C87.1095 133.108 86.9095 133.008 86.7095 132.908C86.5095 132.808 86.3095 132.708 86.1095 132.708C85.9095 132.608 85.6095 132.608 85.3095 132.608H85.2095C84.9095 132.608 84.7095 132.608 84.4095 132.708C84.2095 132.808 84.0095 132.808 83.8095 132.908C83.5095 133.108 83.4095 133.308 83.2095 133.408Z" fill="#000F41"/>
  <path fill-rule="evenodd" clip-rule="evenodd" d="M91.9095 130.908H93.8095C94.0095 130.908 94.1095 131.008 94.1095 131.208V131.908H94.2095C94.4095 131.708 94.7095 131.508 94.9095 131.308C95.2095 131.108 95.4095 131.008 95.7095 130.908C96.0095 130.808 96.3095 130.708 96.6095 130.708C96.9095 130.708 97.2095 130.608 97.6095 130.608C98.1095 130.608 98.7095 130.708 99.1095 130.808C99.5095 130.908 99.9095 131.108 100.31 131.408C100.61 131.708 100.81 132.008 101.01 132.408C101.11 132.808 101.21 133.208 101.21 133.708V139.008C101.21 139.208 101.11 139.308 100.91 139.308H98.9095C98.7095 139.308 98.6095 139.208 98.6095 139.008V134.608C98.6095 134.308 98.6095 134.008 98.5095 133.808C98.4095 133.608 98.3095 133.408 98.1095 133.308C97.9095 133.208 97.7095 133.108 97.5095 133.008C97.2095 132.908 97.0095 132.908 96.6095 132.908C96.3095 132.908 95.9095 132.908 95.6095 133.108C95.3095 133.208 95.1095 133.308 94.8095 133.608C94.6095 133.808 94.4095 134.008 94.3095 134.308C94.2095 134.608 94.1095 134.908 94.1095 135.308V139.208C94.1095 139.408 94.0095 139.508 93.8095 139.508H91.8095C91.6095 139.508 91.5095 139.408 91.5095 139.208V131.408C91.6095 131.108 91.8095 130.908 91.9095 130.908Z" fill="#000F41"/>
  <path fill-rule="evenodd" clip-rule="evenodd" d="M135.61 135.508C135.61 135.808 135.41 135.908 135.31 135.908C134.71 135.908 128.11 135.908 128.01 135.908C128.11 136.208 128.21 136.408 128.31 136.608C128.41 136.808 128.61 137.008 128.81 137.108C129.01 137.208 129.21 137.308 129.51 137.408C129.81 137.508 130.11 137.508 130.41 137.508H130.51C130.81 137.508 131.01 137.508 131.21 137.408C131.41 137.408 131.61 137.308 131.81 137.208C132.01 137.108 132.11 137.008 132.21 136.908C132.31 136.808 132.41 136.708 132.51 136.608C132.61 136.508 132.71 136.508 132.81 136.508H135.11H135.21C135.41 136.608 135.41 136.708 135.41 136.908C135.21 137.308 135.01 137.608 134.81 137.908C134.51 138.208 134.21 138.508 133.91 138.708C133.51 139.008 133.01 139.108 132.41 139.308C131.91 139.408 131.21 139.508 130.61 139.508H130.51C129.71 139.508 129.01 139.408 128.31 139.208C127.61 139.008 127.11 138.708 126.61 138.308C126.21 137.908 125.81 137.408 125.61 136.908C125.41 136.408 125.31 135.708 125.31 135.008C125.31 134.308 125.41 133.708 125.61 133.108C125.81 132.508 126.21 132.108 126.61 131.708C127.01 131.308 127.61 131.008 128.31 130.808C128.91 130.608 129.71 130.508 130.51 130.508H130.61C131.41 130.508 132.11 130.608 132.81 130.808C133.51 131.008 134.01 131.308 134.51 131.708C134.91 132.108 135.31 132.608 135.51 133.108C135.71 133.608 135.81 134.308 135.81 135.008C135.81 135.008 135.81 135.108 135.81 135.208C135.61 135.408 135.61 135.508 135.61 135.508ZM128.41 133.408C128.31 133.608 128.11 133.708 128.11 133.908H132.71C132.61 133.708 132.51 133.508 132.41 133.308C132.31 133.108 132.11 133.008 131.91 132.908C131.71 132.808 131.51 132.708 131.31 132.708C131.11 132.608 130.81 132.608 130.51 132.608H130.41C130.11 132.608 129.91 132.608 129.61 132.708C129.41 132.808 129.21 132.808 129.01 132.908C128.71 133.108 128.61 133.308 128.41 133.408Z" fill="#000F41"/>
  <path fill-rule="evenodd" clip-rule="evenodd" d="M105.409 136.208C105.509 136.508 105.709 136.808 105.909 137.008C106.109 137.208 106.41 137.408 106.71 137.508C107.01 137.608 107.41 137.708 107.81 137.708H107.909C108.209 137.708 108.51 137.708 108.81 137.608C109.11 137.508 109.309 137.408 109.509 137.308C109.709 137.208 109.809 137.008 109.909 136.908C110.009 136.708 110.11 136.508 110.21 136.308C110.21 136.208 110.409 136.108 110.509 136.108H112.71C112.71 136.108 112.71 136.108 112.81 136.108C113.01 136.108 113.109 136.308 113.009 136.508C112.909 137.008 112.709 137.408 112.509 137.808C112.209 138.208 111.909 138.508 111.509 138.808C111.109 139.108 110.509 139.408 109.909 139.508C109.309 139.708 108.609 139.708 107.909 139.708H107.81C107.01 139.708 106.309 139.608 105.609 139.408C104.909 139.208 104.409 138.908 103.909 138.508C103.509 138.108 103.109 137.608 102.909 137.108C102.709 136.608 102.609 135.908 102.609 135.208C102.609 134.508 102.709 133.908 102.909 133.308C103.109 132.708 103.509 132.308 103.909 131.908C104.309 131.508 104.909 131.208 105.609 131.008C106.209 130.808 107.01 130.708 107.81 130.708H107.909C108.609 130.708 109.21 130.808 109.81 130.908C110.41 131.008 110.91 131.308 111.31 131.508C111.71 131.708 112.01 132.008 112.21 132.408C112.51 132.708 112.71 133.108 112.81 133.508V133.608C112.81 133.808 112.709 133.908 112.509 133.908H110.31C110.21 133.908 110.109 133.808 110.009 133.708C109.909 133.508 109.81 133.408 109.71 133.308C109.61 133.208 109.41 133.108 109.31 133.008C109.11 132.908 108.91 132.808 108.71 132.808C108.51 132.708 108.209 132.708 107.909 132.708H107.81C107.41 132.708 107.01 132.808 106.71 132.908C106.41 133.008 106.109 133.208 105.909 133.408C105.709 133.608 105.509 133.908 105.409 134.208C105.309 134.508 105.21 134.908 105.21 135.308C105.31 135.508 105.309 135.908 105.409 136.208Z" fill="#000F41"/>
  <path fill-rule="evenodd" clip-rule="evenodd" d="M123.609 139.408H121.609C121.409 139.408 121.309 139.308 121.309 139.108V138.308H121.209C121.009 138.508 120.709 138.708 120.509 138.908C120.209 139.108 120.009 139.208 119.709 139.308C119.409 139.408 119.109 139.508 118.809 139.508C118.509 139.508 118.209 139.608 117.809 139.608C117.309 139.608 116.709 139.508 116.309 139.408C115.909 139.308 115.509 139.108 115.109 138.808C114.809 138.508 114.609 138.208 114.409 137.808C114.309 137.408 114.209 137.008 114.209 136.508V131.208C114.209 131.008 114.309 130.908 114.509 130.908H116.509C116.709 130.908 116.809 131.008 116.809 131.208V135.608C116.809 135.908 116.809 136.208 116.909 136.408C117.009 136.608 117.109 136.808 117.309 136.908C117.509 137.008 117.709 137.108 117.909 137.208C118.209 137.308 118.409 137.308 118.809 137.308C119.109 137.308 119.509 137.308 119.809 137.108C120.109 137.008 120.309 136.908 120.609 136.608C120.809 136.408 121.009 136.208 121.109 135.908C121.209 135.608 121.309 135.308 121.309 134.908V131.008C121.309 130.808 121.409 130.708 121.609 130.708H123.609C123.809 130.708 123.909 130.808 123.909 131.008V138.808C123.909 139.208 123.709 139.408 123.609 139.408Z" fill="#000F41"/>
  <path fill-rule="evenodd" clip-rule="evenodd" d="M145.909 133.507H143.81C143.71 133.507 143.509 133.407 143.509 133.307C143.509 133.207 143.41 133.107 143.31 133.007C143.21 132.907 143.109 132.807 142.909 132.707C142.709 132.607 142.51 132.607 142.31 132.507C142.01 132.507 141.809 132.408 141.509 132.408C141.209 132.408 141.01 132.407 140.71 132.507C140.51 132.507 140.31 132.607 140.21 132.607C140.01 132.707 139.91 132.808 139.81 132.908C139.71 133.008 139.71 133.107 139.71 133.207C139.71 133.307 139.71 133.407 139.81 133.507C139.81 133.607 139.909 133.607 140.009 133.707C140.109 133.707 140.21 133.807 140.31 133.807C140.41 133.807 140.61 133.908 140.81 133.908C141.31 134.008 141.909 134.007 142.409 134.107C142.909 134.107 143.31 134.207 143.81 134.307C144.21 134.307 144.609 134.407 145.009 134.507C145.409 134.607 145.709 134.807 145.909 135.007C146.209 135.207 146.309 135.507 146.509 135.807C146.609 136.107 146.71 136.508 146.71 136.908C146.71 137.408 146.609 137.907 146.409 138.207C146.209 138.607 145.809 138.807 145.409 139.107C145.009 139.307 144.41 139.507 143.81 139.607C143.21 139.707 142.51 139.707 141.71 139.707C141.01 139.707 140.31 139.707 139.71 139.607C139.11 139.507 138.609 139.407 138.109 139.107C137.709 138.907 137.409 138.607 137.109 138.307C136.909 138.007 136.709 137.607 136.609 137.107C136.609 137.107 136.609 137.107 136.609 137.007C136.609 136.807 136.709 136.707 136.909 136.707H139.109C139.209 136.707 139.409 136.808 139.409 136.908C139.409 137.108 139.509 137.207 139.609 137.307C139.709 137.407 139.809 137.507 140.009 137.607C140.209 137.707 140.41 137.807 140.71 137.807C141.01 137.807 141.309 137.908 141.609 137.908C142.009 137.908 142.309 137.907 142.509 137.807C142.809 137.807 143.009 137.707 143.109 137.607C143.309 137.507 143.409 137.407 143.509 137.307C143.609 137.207 143.609 137.108 143.609 136.908C143.609 136.808 143.609 136.707 143.509 136.607C143.509 136.507 143.41 136.408 143.31 136.408C143.21 136.308 143.109 136.307 143.009 136.307C142.909 136.307 142.709 136.207 142.509 136.207L139.71 135.807C139.31 135.707 138.909 135.707 138.509 135.607C138.109 135.507 137.809 135.407 137.609 135.207C137.309 135.007 137.109 134.807 137.009 134.507C136.909 134.207 136.81 133.908 136.81 133.408C136.81 133.008 136.909 132.607 137.109 132.307C137.309 132.007 137.609 131.707 138.009 131.507C138.409 131.307 138.909 131.107 139.409 131.007C140.009 130.907 140.709 130.807 141.409 130.807C142.109 130.807 142.809 130.907 143.409 131.007C144.009 131.107 144.509 131.307 144.909 131.507C145.209 131.707 145.51 131.907 145.71 132.207C145.91 132.507 146.009 132.807 146.109 133.207C146.109 133.207 146.109 133.207 146.109 133.307C146.209 133.407 146.009 133.507 145.909 133.507Z" fill="#000F41"/>
  <path fill-rule="evenodd" clip-rule="evenodd" d="M151.01 137.408C151.11 137.408 151.31 137.408 151.51 137.408H151.61H151.81C152.01 137.408 152.11 137.508 152.11 137.708V139.208C152.11 139.408 152.01 139.508 151.81 139.508H151.61H151.41C151.31 139.508 151.21 139.508 151.11 139.508C151.01 139.508 150.91 139.508 150.81 139.508C150.21 139.508 149.81 139.508 149.41 139.408C149.01 139.308 148.71 139.208 148.41 139.008C148.11 138.808 148.01 138.508 147.91 138.208C147.81 137.908 147.81 137.508 147.81 137.108V129.508C147.81 129.308 147.91 129.208 148.11 129.208H150.11C150.31 129.208 150.41 129.308 150.41 129.508V130.908H152.31C152.51 130.908 152.61 131.008 152.61 131.208V132.508C152.61 132.708 152.51 132.808 152.31 132.808H150.41V136.608C150.41 136.808 150.41 136.908 150.51 137.008C150.51 137.108 150.61 137.208 150.71 137.208C150.81 137.308 150.91 137.408 151.01 137.408Z" fill="#000F41"/>
  <path fill-rule="evenodd" clip-rule="evenodd" d="M162.809 139.408H160.909C160.709 139.408 160.609 139.308 160.609 139.108V138.108C160.409 138.308 160.209 138.608 159.909 138.708C159.609 138.908 159.409 139.008 159.009 139.208C158.709 139.308 158.309 139.408 158.009 139.508C157.609 139.608 157.209 139.608 156.809 139.608C156.309 139.608 155.909 139.508 155.409 139.408C155.009 139.308 154.609 139.108 154.309 138.808C154.009 138.608 153.809 138.308 153.609 138.008C153.509 137.708 153.409 137.308 153.409 136.908C153.409 136.508 153.509 136.108 153.609 135.808C153.709 135.508 153.909 135.208 154.209 135.008C154.409 134.808 154.709 134.608 155.109 134.508C155.409 134.408 155.809 134.308 156.109 134.308C157.009 134.308 158.609 134.108 159.509 134.008C159.709 134.008 159.809 134.008 159.909 133.908C160.009 133.908 160.109 133.808 160.209 133.808C160.309 133.708 160.309 133.708 160.409 133.608C160.409 133.508 160.509 133.408 160.509 133.308C160.509 133.208 160.509 133.108 160.409 133.008C160.309 132.908 160.209 132.808 160.009 132.708C159.909 132.608 159.709 132.608 159.509 132.608C159.309 132.608 159.009 132.508 158.709 132.508C158.409 132.508 158.209 132.508 157.909 132.608C157.709 132.608 157.509 132.708 157.309 132.808C157.209 132.908 157.109 132.908 157.009 133.008C156.909 133.108 156.909 133.208 156.809 133.308C156.809 133.408 156.609 133.508 156.509 133.508H154.309C154.109 133.508 154.009 133.308 154.009 133.108C154.109 132.708 154.209 132.408 154.409 132.108C154.609 131.808 154.909 131.608 155.209 131.408C155.609 131.208 156.109 131.008 156.709 130.908C157.309 130.808 158.009 130.708 158.609 130.708C159.309 130.708 159.909 130.708 160.409 130.808C161.009 130.908 161.509 131.008 161.909 131.208C162.309 131.408 162.609 131.608 162.809 132.008C163.009 132.308 163.109 132.708 163.109 133.208V139.008C163.109 139.208 162.909 139.408 162.809 139.408ZM160.309 136.608C160.409 136.408 160.509 136.108 160.509 135.708V135.308C160.509 135.308 160.409 135.408 160.309 135.408C160.209 135.408 160.209 135.408 160.109 135.508C160.009 135.508 160.009 135.508 159.909 135.508C159.809 135.508 159.809 135.508 159.709 135.508L157.309 135.808C157.109 135.808 156.909 135.908 156.809 135.908C156.709 135.908 156.509 136.008 156.409 136.108C156.309 136.208 156.209 136.308 156.209 136.408C156.109 136.508 156.109 136.708 156.109 136.808C156.109 137.008 156.109 137.208 156.209 137.308C156.309 137.408 156.409 137.508 156.509 137.608C156.609 137.708 156.809 137.708 156.909 137.808C157.109 137.808 157.309 137.908 157.509 137.908C157.909 137.908 158.309 137.808 158.709 137.708C159.009 137.608 159.409 137.408 159.609 137.208C159.909 137.108 160.109 136.808 160.309 136.608Z" fill="#000F41"/>
  <path fill-rule="evenodd" clip-rule="evenodd" d="M183.51 131.008C184.11 130.808 184.91 130.708 185.71 130.708C186.51 130.708 187.31 130.808 187.91 131.008C188.61 131.208 189.11 131.508 189.61 131.908C190.11 132.308 190.41 132.808 190.61 133.308C190.81 133.808 190.91 134.508 190.91 135.208C190.91 135.908 190.81 136.508 190.61 137.108C190.41 137.708 190.01 138.108 189.61 138.508C189.11 138.908 188.61 139.208 187.91 139.408C187.31 139.608 186.51 139.708 185.71 139.708C184.91 139.708 184.11 139.608 183.51 139.408C182.81 139.208 182.31 138.908 181.81 138.508C181.31 138.108 181.01 137.608 180.81 137.108C180.61 136.608 180.51 135.908 180.51 135.208C180.51 134.508 180.61 133.908 180.81 133.308C181.01 132.708 181.41 132.308 181.81 131.908C182.21 131.508 182.81 131.208 183.51 131.008ZM184.61 137.408C184.91 137.508 185.31 137.608 185.71 137.608C186.11 137.608 186.51 137.508 186.81 137.408C187.11 137.308 187.41 137.108 187.61 136.908C187.81 136.708 188.01 136.408 188.11 136.108C188.21 135.808 188.31 135.408 188.31 135.008C188.31 134.608 188.21 134.208 188.11 133.908C188.01 133.608 187.81 133.308 187.61 133.108C187.41 132.908 187.11 132.708 186.81 132.608C186.51 132.508 186.11 132.408 185.71 132.408C185.31 132.408 184.91 132.508 184.61 132.608C184.31 132.708 184.01 132.908 183.81 133.108C183.61 133.308 183.41 133.608 183.31 133.908C183.21 134.208 183.11 134.608 183.11 135.008C183.11 135.408 183.21 135.808 183.31 136.108C183.41 136.408 183.61 136.708 183.81 136.908C184.01 137.108 184.31 137.308 184.61 137.408Z" fill="#000F41"/>
  <path fill-rule="evenodd" clip-rule="evenodd" d="M171.71 136.208C171.81 136.508 172.01 136.808 172.21 137.008C172.41 137.208 172.71 137.408 173.01 137.508C173.31 137.608 173.71 137.708 174.11 137.708H174.21C174.51 137.708 174.81 137.708 175.11 137.608C175.41 137.508 175.61 137.408 175.81 137.308C176.01 137.208 176.11 137.008 176.21 136.908C176.31 136.708 176.41 136.508 176.51 136.308C176.51 136.208 176.71 136.108 176.81 136.108H178.91C178.91 136.108 178.91 136.108 179.01 136.108C179.21 136.108 179.31 136.308 179.21 136.508C179.11 137.008 178.91 137.408 178.71 137.808C178.41 138.208 178.11 138.508 177.71 138.808C177.31 139.108 176.71 139.308 176.11 139.508C175.51 139.708 174.81 139.708 174.11 139.708H174.01C173.21 139.708 172.51 139.608 171.81 139.408C171.11 139.208 170.61 138.908 170.11 138.508C169.71 138.108 169.31 137.608 169.11 137.108C168.91 136.608 168.81 135.908 168.81 135.208C168.81 134.508 168.91 133.908 169.11 133.308C169.31 132.708 169.71 132.308 170.11 131.908C170.51 131.508 171.11 131.208 171.81 131.008C172.41 130.808 173.21 130.708 174.01 130.708H174.11C174.81 130.708 175.41 130.808 176.01 130.908C176.61 131.008 177.11 131.308 177.51 131.508C177.91 131.708 178.21 132.008 178.41 132.408C178.71 132.708 178.91 133.108 179.01 133.508V133.608C179.01 133.808 178.91 133.908 178.71 133.908H176.51C176.41 133.908 176.31 133.808 176.21 133.708C176.11 133.508 176.01 133.408 175.91 133.308C175.81 133.208 175.61 133.108 175.51 133.008C175.31 132.908 175.11 132.808 174.91 132.808C174.71 132.708 174.41 132.708 174.11 132.708H174.01C173.61 132.708 173.21 132.808 172.91 132.908C172.61 133.008 172.31 133.208 172.11 133.408C171.91 133.608 171.71 133.908 171.61 134.108C171.51 134.408 171.41 134.808 171.41 135.208C171.51 135.508 171.61 135.908 171.71 136.208Z" fill="#000F41"/>
  <path fill-rule="evenodd" clip-rule="evenodd" d="M165.909 136.307C166.309 136.307 166.809 136.507 167.009 136.807C167.109 136.907 167.309 137.107 167.309 137.307C167.409 137.507 167.409 137.708 167.409 137.908C167.409 138.108 167.409 138.307 167.309 138.507C167.209 138.707 167.109 138.907 167.009 139.007C166.909 139.107 166.709 139.308 166.509 139.408C166.309 139.508 166.109 139.507 165.909 139.507C165.709 139.507 165.509 139.508 165.309 139.408C165.109 139.308 164.909 139.207 164.809 139.007C164.709 138.907 164.509 138.707 164.509 138.507C164.409 138.307 164.409 138.108 164.409 137.908C164.409 137.708 164.409 137.507 164.509 137.307C164.609 137.107 164.709 136.907 164.809 136.807C164.909 136.707 165.109 136.508 165.309 136.408C165.509 136.308 165.709 136.307 165.909 136.307Z" fill="#000F41"/>
  <path fill-rule="evenodd" clip-rule="evenodd" d="M192.509 131.008H194.409C194.609 131.008 194.709 131.108 194.709 131.308V132.108H194.809C195.009 131.908 195.209 131.708 195.409 131.608C195.609 131.408 195.909 131.308 196.109 131.208C196.409 131.108 196.709 131.008 197.009 130.908C197.309 130.808 197.709 130.808 198.009 130.808C198.309 130.808 198.609 130.808 198.909 130.908C199.209 130.908 199.509 131.008 199.709 131.108C200.009 131.208 200.209 131.308 200.409 131.508C200.609 131.708 200.809 131.908 200.909 132.108C201.109 131.908 201.309 131.708 201.509 131.508C201.709 131.308 202.009 131.208 202.309 131.108C202.609 131.008 202.909 130.908 203.309 130.808C203.709 130.708 204.009 130.708 204.409 130.708C204.909 130.708 205.409 130.808 205.809 130.908C206.209 131.008 206.609 131.208 206.909 131.508C207.209 131.808 207.409 132.108 207.609 132.508C207.709 132.908 207.809 133.308 207.809 133.808V138.908C207.809 139.108 207.709 139.208 207.509 139.208H205.509C205.309 139.208 205.209 139.108 205.209 138.908V134.508C205.209 134.208 205.209 134.008 205.109 133.808C205.009 133.608 204.909 133.408 204.809 133.308C204.709 133.208 204.509 133.108 204.309 133.008C204.109 132.908 203.809 132.908 203.509 132.908C203.209 132.908 202.909 132.908 202.609 133.108C202.409 133.208 202.109 133.308 201.909 133.508C201.709 133.708 201.609 133.908 201.509 134.108C201.409 134.308 201.409 134.608 201.409 135.008V139.008C201.409 139.208 201.309 139.308 201.109 139.308H199.109C198.909 139.308 198.809 139.208 198.809 139.008V134.608C198.809 134.308 198.809 134.108 198.709 133.908C198.609 133.708 198.509 133.508 198.409 133.408C198.209 133.308 198.109 133.208 197.809 133.108C197.609 133.008 197.309 133.008 197.009 133.008C196.709 133.008 196.409 133.008 196.109 133.208C195.909 133.308 195.609 133.408 195.409 133.608C195.209 133.808 195.109 134.008 195.009 134.208C194.909 134.408 194.909 134.708 194.909 135.108V139.108C194.909 139.308 194.809 139.408 194.609 139.408H192.609C192.409 139.408 192.309 139.308 192.309 139.108V131.308C192.209 131.108 192.309 131.008 192.509 131.008Z" fill="#000F41"/>
  <path fill-rule="evenodd" clip-rule="evenodd" d="M166.009 57.5075C189.209 68.3075 209.609 86.5076 219.109 109.608C226.309 127.108 227.009 145.808 220.609 163.708C216.509 175.108 209.709 185.508 201.109 194.108C192.509 202.708 182.11 209.608 170.81 214.208C152.61 221.608 132.11 223.108 112.71 216.108C87.0095 206.808 67.8095 183.908 58.0095 157.908C53.7095 146.508 51.2095 134.508 50.7095 122.808C50.2095 111.008 51.7095 99.5075 55.4095 89.0075C61.5095 72.0075 73.6095 58.0075 92.6095 50.8075C113.81 42.9075 141.509 46.1075 166.009 57.5075ZM287.21 154.508C298.41 60.0076 158.91 -17.3925 70.3095 3.40755C-5.39048 21.2075 -12.6905 105.908 14.4095 173.908C37.7095 232.508 78.8095 268.608 135.71 268.608C200.21 268.708 279.11 222.708 287.21 154.508Z" fill="url(#paint0_linear)"/>
  <path opacity="0.4" fill-rule="evenodd" clip-rule="evenodd" d="M122.609 268.008C72.4095 262.908 35.8095 228.008 14.3095 174.008C-12.6905 105.908 -5.39051 21.3076 70.2095 3.50755C117.909 -7.69245 180.409 9.60755 226.209 42.7076C172.409 4.10755 86.8095 1.40755 47.1095 50.5076C-9.99052 121.208 28.0095 257.408 122.609 268.008Z" fill="url(#paint1_radial)"/>
  <path fill-rule="evenodd" clip-rule="evenodd" d="M227.209 107.008C204.309 56.3075 141.309 25.6075 87.2094 43.9075C0.209442 73.4075 28.9094 206.408 102.709 238.608C177.009 271.008 264.609 190.208 227.209 107.008ZM216.109 110.908C242.309 175.008 172.109 234.208 113.709 213.208C49.6094 190.108 27.7094 78.8075 93.7094 53.9075C133.309 39.0075 197.309 64.8075 216.109 110.908Z" fill="#000F41"/>
  <defs>
    <linearGradient id="paint0_linear" x1="62.1675" y1="53.0966" x2="204.898" y2="206.028" gradientUnits="userSpaceOnUse">
      <stop stop-color="#2D50FA"/>
      <stop offset="0.15" stop-color="#2D50FA"/>
      <stop offset="0.3" stop-color="#2D50FA"/>
      <stop offset="1" stop-color="#FF009B"/>
    </linearGradient>
    <radialGradient id="paint1_radial" cx="0" cy="0" r="1" gradientUnits="userSpaceOnUse" gradientTransform="translate(114.762 133.973) scale(143.422)">
      <stop stop-color="white"/>
      <stop offset="0.32" stop-color="#909090"/>
      <stop offset="1" stop-color="white"/>
    </radialGradient>
  </defs>
</svg>
