<svg class="logo_bg" width="50" height="50" viewBox="0 0 50 50" fill="none" xmlns="http://www.w3.org/2000/svg">
  <g id="logo_sqared_white">
    <path fill-rule="evenodd" clip-rule="evenodd" d="M28.8365 11.9893C32.8665 13.8654 36.4101 17.0268 38.0603 21.0394C39.311 24.0792 39.4325 27.3275 38.3208 30.4368C37.6086 32.417 36.4275 34.2236 34.9336 35.7174C33.4397 37.2113 31.6332 38.4099 29.6703 39.2089C26.5089 40.4943 22.948 40.7549 19.5781 39.5389C15.1139 37.9235 11.7787 33.9456 10.0764 29.4293C9.32949 27.4491 8.89523 25.3646 8.80838 23.3323C8.72153 21.2826 8.98208 19.2849 9.62479 17.461C10.6844 14.5081 12.7862 12.0762 16.0866 10.8255C19.7692 9.45325 24.5808 10.0091 28.8365 11.9893ZM49.8896 28.8387C51.8351 12.4236 27.6032 -1.02115 12.213 2.59191C-0.936463 5.68385 -2.20451 20.3967 2.50289 32.2086C6.55022 42.3877 13.6895 48.6584 23.5733 48.6584C34.7773 48.6758 48.4826 40.6854 49.8896 28.8387Z" fill="url(#paint0_linear)"/>
    <path opacity="0.4" fill-rule="evenodd" clip-rule="evenodd" d="M21.2979 48.5542C12.5779 47.6683 6.22028 41.606 2.48563 32.226C-2.20441 20.3967 -0.936358 5.70124 12.1957 2.6093C20.4815 0.663801 31.338 3.66889 39.2937 9.41853C29.9484 2.71352 15.0792 2.24452 8.18315 10.7734C-1.7354 23.0544 4.86538 46.713 21.2979 48.5542Z" fill="url(#paint1_radial)"/>
    <path fill-rule="evenodd" clip-rule="evenodd" d="M39.4673 20.5877C35.4895 11.7809 24.5461 6.44814 15.1487 9.62694C0.0363259 14.7512 5.02166 37.854 17.8411 43.4473C30.7473 49.0753 45.9639 35.04 39.4673 20.5877ZM37.5392 21.2652C42.0903 32.3996 29.8962 42.683 19.7518 39.0352C8.61735 35.0226 4.81321 15.6892 16.2777 11.364C23.1564 8.77578 34.2736 13.2574 37.5392 21.2652Z" fill="#000F41"/>
  </g>
</svg>
