<svg class="logo_svg" viewBox="0 0 381 53" fill="none" xmlns="http://www.w3.org/2000/svg">
<!-- <svg class="logo_svg" viewBox="70 16 381 25" fill="none" xmlns="http://www.w3.org/2000/svg"> -->
  <path fill-rule="evenodd" clip-rule="evenodd" d="M97.8966 29.1694V29.3694C97.8966 29.7694 97.5966 30.0694 97.1966 30.0694C95.6966 30.0694 79.7966 30.0694 79.5966 30.0694C79.7966 30.7694 79.9966 31.2694 80.2966 31.7694C80.5966 32.2694 80.9966 32.6694 81.4966 33.0694C81.9966 33.3694 82.4966 33.6694 83.1966 33.8694C83.7966 34.0694 84.4966 34.1694 85.2966 34.1694H85.4966C86.0966 34.1694 86.6966 34.0694 87.1966 33.9694C87.6966 33.8694 88.1965 33.6694 88.5965 33.4694C88.9965 33.2694 89.2965 33.0694 89.5965 32.7694C89.8965 32.5694 90.0966 32.2694 90.3966 31.9694C90.4966 31.7694 90.7966 31.5694 90.9966 31.5694H96.4966C96.5966 31.5694 96.6966 31.5694 96.7966 31.6694C97.1966 31.8694 97.3966 32.2694 97.1966 32.6694C96.7966 33.5694 96.2966 34.3694 95.6966 35.1694C95.0966 35.8694 94.2966 36.4694 93.4966 37.0694C92.4966 37.6694 91.2966 38.1694 89.8966 38.4694C88.5966 38.7694 87.0966 38.9694 85.4966 38.9694H85.2966C83.2966 38.9694 81.5966 38.7694 80.0966 38.2694C78.4966 37.7694 77.1966 37.0694 76.0966 36.1694C74.9966 35.2694 74.1966 34.0694 73.6966 32.7694C73.1966 31.4694 72.8966 29.9694 72.8966 28.2694C72.8966 26.5694 73.1966 25.0694 73.6966 23.7694C74.1966 22.4694 75.0966 21.2694 76.0966 20.3694C77.1966 19.4694 78.4966 18.7694 80.0966 18.2694C81.5966 17.7694 83.3966 17.5694 85.2966 17.5694H85.4966C87.4966 17.5694 89.1966 17.7694 90.6966 18.2694C92.2966 18.7694 93.5966 19.4694 94.6966 20.3694C95.7966 21.2694 96.5965 22.4694 97.0965 23.7694C97.5965 25.0694 97.8966 26.5694 97.8966 28.2694C97.8966 28.3694 97.8966 28.5694 97.8966 28.7694C97.8966 28.8694 97.8966 28.9694 97.8966 29.1694ZM90.7966 25.3694C90.8966 25.3694 90.7966 25.3694 90.7966 25.3694V25.3694ZM80.6966 23.9694C80.3966 24.3694 80.0966 24.7694 79.8966 25.2694H90.8966C90.6966 24.7694 90.3965 24.3694 90.0965 23.9694C89.7965 23.5694 89.3966 23.2694 88.8966 22.9694C88.3966 22.6694 87.8966 22.4694 87.3966 22.3694C86.7966 22.2694 86.1966 22.1694 85.4966 22.1694H85.2966C84.5966 22.1694 83.9966 22.2694 83.3966 22.3694C82.7966 22.4694 82.2966 22.6694 81.8966 22.9694C81.3966 23.2694 80.9966 23.6694 80.6966 23.9694Z" fill="currentColor"/>
  <path fill-rule="evenodd" clip-rule="evenodd" d="M101.697 18.0694H106.397C106.797 18.0694 107.097 18.3694 107.097 18.7694V20.5694H107.297C107.797 20.0694 108.397 19.5694 108.997 19.2694C109.597 18.8694 110.297 18.5694 110.997 18.3694C111.697 18.1694 112.397 17.9694 113.197 17.8694C113.997 17.7694 114.797 17.6694 115.597 17.6694C116.897 17.6694 118.097 17.8694 119.197 18.1694C120.297 18.4694 121.197 18.9694 121.997 19.6694C122.697 20.2694 123.297 21.0694 123.697 22.0694C124.097 22.9694 124.297 23.9694 124.297 25.1694V37.8694C124.297 38.2694 123.997 38.5694 123.597 38.5694H118.697C118.297 38.5694 117.997 38.2694 117.997 37.8694V26.9694C117.997 26.1694 117.897 25.4694 117.697 24.9694C117.497 24.4694 117.197 23.9694 116.697 23.6694C116.297 23.3694 115.797 23.0694 115.197 22.8694C114.597 22.6694 113.897 22.5694 113.097 22.5694C112.297 22.5694 111.397 22.6694 110.597 22.9694C109.897 23.1694 109.297 23.5694 108.797 24.0694C108.297 24.4694 107.897 25.0694 107.697 25.7694C107.497 26.3694 107.297 27.1694 107.297 28.0694V37.5694C107.297 37.9694 106.997 38.2694 106.597 38.2694H101.697C101.297 38.2694 100.997 37.9694 100.997 37.5694V18.7694C100.897 18.3694 101.297 18.0694 101.697 18.0694Z" fill="currentColor"/>
  <path fill-rule="evenodd" clip-rule="evenodd" d="M206.597 29.1694V29.3694C206.597 29.7694 206.297 30.0694 205.897 30.0694C204.397 30.0694 188.497 30.0694 188.297 30.0694C188.497 30.7694 188.697 31.2694 188.997 31.7694C189.297 32.2694 189.697 32.6694 190.197 33.0694C190.697 33.3694 191.197 33.6694 191.897 33.8694C192.497 34.0694 193.197 34.1694 193.997 34.1694H194.197C194.797 34.1694 195.397 34.0694 195.897 33.9694C196.397 33.8694 196.897 33.6694 197.297 33.4694C197.697 33.2694 197.997 33.0694 198.297 32.7694C198.597 32.5694 198.797 32.2694 199.097 31.9694C199.197 31.7694 199.497 31.5694 199.697 31.5694H205.197C205.297 31.5694 205.397 31.5694 205.497 31.6694C205.897 31.8694 206.097 32.2694 205.897 32.6694C205.497 33.5694 204.997 34.3694 204.397 35.1694C203.797 35.8694 202.997 36.4694 202.197 37.0694C201.197 37.6694 199.997 38.1694 198.597 38.4694C197.297 38.7694 195.797 38.9694 194.197 38.9694H193.997C191.997 38.9694 190.297 38.7694 188.797 38.2694C187.197 37.7694 185.897 37.0694 184.797 36.1694C183.697 35.2694 182.897 34.0694 182.397 32.7694C181.897 31.4694 181.597 29.9694 181.597 28.2694C181.597 26.5694 181.897 25.0694 182.397 23.7694C182.997 22.4694 183.797 21.2694 184.797 20.3694C185.897 19.4694 187.197 18.7694 188.797 18.2694C190.297 17.7694 192.097 17.5694 193.997 17.5694H194.197C196.197 17.5694 197.897 17.7694 199.397 18.2694C200.997 18.7694 202.297 19.4694 203.397 20.3694C204.497 21.2694 205.297 22.4694 205.797 23.7694C206.297 25.0694 206.597 26.5694 206.597 28.2694C206.597 28.3694 206.597 28.5694 206.597 28.7694C206.597 28.8694 206.597 28.9694 206.597 29.1694ZM189.397 23.9694C189.097 24.3694 188.797 24.7694 188.597 25.2694H199.597C199.397 24.7694 199.097 24.3694 198.797 23.9694C198.497 23.5694 198.097 23.2694 197.597 22.9694C197.097 22.6694 196.597 22.4694 196.097 22.3694C195.497 22.2694 194.897 22.1694 194.197 22.1694H193.997C193.297 22.1694 192.697 22.2694 192.097 22.3694C191.497 22.4694 190.997 22.6694 190.597 22.9694C190.197 23.2694 189.797 23.6694 189.397 23.9694Z" fill="currentColor"/>
  <path fill-rule="evenodd" clip-rule="evenodd" d="M134.197 30.7694C134.497 31.4694 134.797 32.0694 135.297 32.5694C135.797 33.0694 136.397 33.4694 137.097 33.6694C137.797 33.9694 138.697 34.0694 139.597 34.0694H139.797C140.597 34.0694 141.297 33.9694 141.897 33.7694C142.497 33.5694 143.097 33.3694 143.597 32.9694C143.997 32.6694 144.397 32.3694 144.697 31.8694C144.997 31.4694 145.197 30.9694 145.397 30.4694C145.497 30.1694 145.797 29.9694 146.097 29.9694H151.297C151.397 29.9694 151.397 29.9694 151.497 29.9694C151.897 30.0694 152.197 30.4694 152.097 30.8694C151.797 32.0694 151.397 33.1694 150.797 34.0694C150.197 34.9694 149.397 35.8694 148.497 36.4694C147.397 37.2694 146.197 37.7694 144.697 38.1694C143.297 38.5694 141.697 38.7694 139.897 38.7694H139.697C137.697 38.7694 135.997 38.5694 134.497 38.0694C132.897 37.5694 131.597 36.8694 130.497 35.9694C129.397 35.0694 128.597 33.8694 128.097 32.5694C127.597 31.2694 127.297 29.7694 127.297 28.0694C127.297 26.3694 127.597 24.8694 128.097 23.5694C128.597 22.2694 129.497 21.0694 130.497 20.1694C131.597 19.2694 132.897 18.5694 134.497 18.0694C135.997 17.5694 137.797 17.3694 139.697 17.3694H139.897C141.597 17.3694 143.097 17.5694 144.397 17.8694C145.797 18.1694 146.997 18.6694 148.097 19.3694C148.997 19.9694 149.797 20.6694 150.397 21.4694C150.997 22.2694 151.497 23.1694 151.797 24.1694C151.797 24.2694 151.897 24.3694 151.897 24.4694C151.897 24.8694 151.597 25.1694 151.197 25.1694H145.697C145.397 25.1694 145.197 25.0694 144.997 24.7694C144.797 24.3694 144.497 23.9694 144.197 23.6694C143.897 23.3694 143.497 23.0694 143.097 22.8694C142.597 22.5694 142.097 22.3694 141.597 22.2694C140.997 22.1694 140.397 22.0694 139.697 22.0694C138.697 22.0694 137.897 22.1694 137.197 22.4694C136.497 22.7694 135.897 23.0694 135.397 23.5694C134.897 24.0694 134.497 24.6694 134.297 25.3694C133.997 26.0694 133.897 26.9694 133.897 27.8694C133.797 29.1694 133.897 29.9694 134.197 30.7694Z" fill="currentColor"/>
  <path fill-rule="evenodd" clip-rule="evenodd" d="M177.797 38.3694H173.097C172.697 38.3694 172.397 38.0694 172.397 37.6694V35.8694H172.197C171.697 36.3694 171.097 36.8694 170.497 37.1694C169.897 37.5694 169.197 37.8694 168.497 38.0694C167.797 38.2694 167.097 38.4694 166.297 38.5694C165.497 38.6694 164.697 38.7694 163.897 38.7694C162.597 38.7694 161.397 38.5694 160.297 38.2694C159.197 37.9694 158.297 37.4694 157.497 36.7694C156.797 36.1694 156.197 35.3694 155.797 34.3694C155.397 33.4694 155.197 32.4694 155.197 31.2694V18.7694C155.197 18.3694 155.497 18.0694 155.897 18.0694H160.697C161.097 18.0694 161.397 18.3694 161.397 18.7694V29.3694C161.397 30.1694 161.497 30.8694 161.697 31.3694C161.897 31.8694 162.197 32.3694 162.697 32.6694C163.097 32.9694 163.597 33.2694 164.197 33.4694C164.797 33.6694 165.497 33.7694 166.297 33.7694C167.097 33.7694 167.997 33.6694 168.797 33.3694C169.497 33.1694 170.097 32.7694 170.597 32.2694C171.097 31.8694 171.497 31.2694 171.697 30.5694C171.897 29.9694 172.097 29.1694 172.097 28.2694V18.7694C172.097 18.3694 172.397 18.0694 172.797 18.0694H177.597C177.997 18.0694 178.297 18.3694 178.297 18.7694V37.5694C178.497 37.9694 178.197 38.3694 177.797 38.3694Z" fill="currentColor"/>
  <path fill-rule="evenodd" clip-rule="evenodd" d="M231.397 24.1694H226.197C225.897 24.1694 225.597 23.9694 225.497 23.6694C225.397 23.3694 225.197 23.0694 224.997 22.8694C224.797 22.6694 224.397 22.3694 224.097 22.2694C223.697 22.0694 223.097 21.9694 222.497 21.8694C221.897 21.7694 221.197 21.7694 220.497 21.7694C219.797 21.7694 219.197 21.7694 218.697 21.8694C218.197 21.9694 217.697 22.0694 217.397 22.1694C216.997 22.3694 216.697 22.5694 216.497 22.7694C216.297 22.9694 216.297 23.2694 216.297 23.4694C216.297 23.7694 216.297 23.9694 216.397 24.1694C216.497 24.3694 216.597 24.4694 216.797 24.5694H216.897C217.097 24.6694 217.297 24.7694 217.597 24.8694C217.897 24.9694 218.297 25.0694 218.797 25.0694C220.097 25.2694 221.397 25.3694 222.597 25.4694C223.697 25.5694 224.797 25.6694 225.997 25.8694C227.097 25.9694 227.997 26.1694 228.897 26.3694C229.797 26.6694 230.497 26.9694 231.097 27.4694C231.697 27.9694 232.197 28.5694 232.497 29.3694C232.797 30.0694 232.997 30.9694 232.997 32.0694C232.997 33.3694 232.697 34.3694 232.197 35.2694C231.697 36.1694 230.897 36.7694 229.797 37.3694C228.797 37.8694 227.497 38.2694 225.997 38.4694C224.497 38.6694 222.897 38.7694 221.097 38.7694C219.397 38.7694 217.797 38.6694 216.397 38.4694C214.897 38.2694 213.597 37.8694 212.597 37.3694C211.597 36.8694 210.797 36.2694 210.197 35.4694C209.597 34.6694 209.197 33.6694 209.097 32.5694C209.097 32.4694 209.097 32.4694 209.097 32.3694C209.097 31.9694 209.397 31.6694 209.797 31.6694H215.097C215.397 31.6694 215.697 31.8694 215.797 32.2694C215.897 32.6694 216.097 33.0694 216.297 33.3694C216.497 33.6694 216.897 33.8694 217.297 34.0694C217.797 34.2694 218.297 34.4694 218.897 34.5694C219.597 34.6694 220.297 34.6694 221.197 34.6694C222.097 34.6694 222.797 34.6694 223.397 34.5694C223.997 34.4694 224.497 34.3694 224.897 34.1694C225.397 33.9694 225.697 33.7694 225.897 33.4694C226.097 33.2694 226.197 32.9694 226.197 32.5694C226.197 32.2694 226.197 31.9694 226.097 31.7694C225.997 31.5694 225.797 31.3694 225.597 31.2694C225.397 31.1694 225.097 31.0694 224.797 30.9694C224.397 30.8694 223.997 30.7694 223.497 30.6694L216.697 29.7694C215.697 29.6694 214.697 29.4694 213.897 29.1694C212.997 28.8694 212.297 28.5694 211.597 28.1694C210.997 27.6694 210.497 27.1694 210.197 26.3694C209.897 25.6694 209.697 24.8694 209.697 23.8694C209.697 22.7694 209.897 21.8694 210.397 21.1694C210.897 20.3694 211.597 19.6694 212.497 19.1694C213.497 18.5694 214.597 18.2694 215.997 17.9694C217.397 17.6694 218.997 17.5694 220.697 17.5694C222.497 17.5694 224.097 17.6694 225.597 17.9694C226.997 18.2694 228.197 18.6694 229.297 19.2694C230.097 19.7694 230.797 20.2694 231.297 20.9694C231.797 21.6694 232.097 22.3694 232.297 23.2694C232.297 23.3694 232.297 23.3694 232.297 23.4694C232.097 23.8694 231.797 24.1694 231.397 24.1694Z" fill="currentColor"/>
  <path fill-rule="evenodd" clip-rule="evenodd" d="M243.597 33.6694C243.897 33.7694 244.297 33.7694 244.697 33.7694H244.997H245.397H245.497C245.897 33.7694 246.197 34.0694 246.197 34.4694V38.0694C246.197 38.4694 245.897 38.7694 245.497 38.7694H245.097H244.697C244.497 38.7694 244.297 38.7694 243.997 38.7694C243.697 38.7694 243.497 38.7694 243.297 38.7694C241.897 38.7694 240.797 38.6694 239.797 38.4694C238.797 38.2694 237.997 37.8694 237.397 37.4694C236.797 36.9694 236.397 36.3694 236.097 35.5694C235.897 34.8694 235.797 33.9694 235.797 32.8694V14.7694C235.797 14.3694 236.097 14.0694 236.497 14.0694H241.297C241.697 14.0694 241.997 14.3694 241.997 14.7694V18.0694H246.597C246.997 18.0694 247.297 18.3694 247.297 18.7694V21.9694C247.297 22.3694 246.997 22.6694 246.597 22.6694H241.997V31.7694C241.997 32.1694 242.097 32.4694 242.197 32.7694C242.297 32.9694 242.497 33.1694 242.697 33.2694C243.097 33.4694 243.397 33.5694 243.597 33.6694Z" fill="currentColor"/>
  <path fill-rule="evenodd" clip-rule="evenodd" d="M271.997 38.3694H267.297C266.897 38.3694 266.597 38.0694 266.597 37.6694V35.3694C266.097 35.9694 265.597 36.4694 264.997 36.8694C264.397 37.2694 263.697 37.6694 262.897 37.9694C262.097 38.2694 261.297 38.4694 260.397 38.6694C259.497 38.8694 258.597 38.8694 257.597 38.8694C256.497 38.8694 255.297 38.7694 254.297 38.3694C253.297 38.0694 252.397 37.6694 251.597 37.0694C250.897 36.5694 250.297 35.8694 249.997 35.0694C249.597 34.2694 249.397 33.4694 249.397 32.4694C249.397 31.3694 249.597 30.4694 249.897 29.7694C250.197 28.9694 250.697 28.3694 251.197 27.8694C251.797 27.3694 252.497 26.9694 253.197 26.7694C253.997 26.4694 254.797 26.3694 255.697 26.2694C257.697 26.2694 261.797 25.6694 263.897 25.4694C264.297 25.4694 264.697 25.3694 264.997 25.2694C265.297 25.1694 265.497 25.0694 265.697 24.9694C265.897 24.8694 265.997 24.6694 266.097 24.4694C266.197 24.2694 266.197 24.0694 266.197 23.7694C266.197 23.4694 266.097 23.2694 265.997 23.0694C265.797 22.8694 265.497 22.6694 265.097 22.4694C264.797 22.3694 264.297 22.1694 263.797 22.1694C263.297 22.0694 262.597 22.0694 261.897 22.0694C261.197 22.0694 260.597 22.1694 259.997 22.2694C259.497 22.3694 258.997 22.5694 258.597 22.7694C258.297 22.9694 257.997 23.1694 257.797 23.3694C257.597 23.5694 257.497 23.7694 257.397 24.0694C257.297 24.3694 256.997 24.5694 256.697 24.5694H251.497H251.397C250.997 24.4694 250.697 24.1694 250.797 23.6694C250.897 22.7694 251.297 21.9694 251.697 21.3694C252.197 20.6694 252.897 20.0694 253.597 19.6694C254.597 19.0694 255.797 18.6694 257.097 18.3694C258.497 18.0694 260.097 17.9694 261.797 17.9694C263.397 17.9694 264.897 18.0694 266.197 18.2694C267.497 18.4694 268.697 18.7694 269.697 19.2694C270.597 19.7694 271.397 20.3694 271.897 21.1694C272.397 21.9694 272.697 22.9694 272.697 24.1694V38.1694C272.697 38.0694 272.397 38.3694 271.997 38.3694ZM265.997 31.5694C266.297 30.9694 266.497 30.2694 266.497 29.4694V28.5694C266.397 28.6694 266.197 28.7694 266.097 28.7694C265.997 28.7694 265.797 28.8694 265.697 28.8694C265.497 28.8694 265.397 28.9694 265.197 28.9694C265.097 28.9694 264.897 29.0694 264.697 29.0694L258.797 29.8694C258.397 29.9694 257.997 30.0694 257.597 30.1694C257.297 30.2694 256.997 30.4694 256.797 30.6694C256.597 30.8694 256.397 31.0694 256.197 31.3694C256.097 31.6694 255.997 31.9694 255.997 32.4694C255.997 32.9694 256.097 33.2694 256.297 33.6694C256.497 33.9694 256.697 34.1694 256.997 34.3694C257.297 34.5694 257.697 34.6694 258.097 34.7694C258.497 34.8694 258.997 34.8694 259.597 34.8694C260.497 34.8694 261.497 34.7694 262.497 34.4694C263.297 34.2694 264.097 33.8694 264.797 33.3694C265.197 32.7694 265.597 32.2694 265.997 31.5694Z" fill="currentColor"/>
  <path fill-rule="evenodd" clip-rule="evenodd" d="M321.797 18.1694C323.297 17.7694 325.097 17.4694 327.097 17.4694C329.097 17.4694 330.897 17.6694 332.397 18.1694C333.997 18.6694 335.297 19.3694 336.397 20.2694C337.497 21.1694 338.297 22.3694 338.897 23.6694C339.397 24.9694 339.697 26.4694 339.697 28.1694C339.697 29.8694 339.397 31.3694 338.897 32.6694C338.297 33.9694 337.497 35.1694 336.397 36.0694C335.297 36.9694 333.997 37.6694 332.397 38.1694C330.897 38.5694 329.097 38.8694 327.097 38.8694C325.097 38.8694 323.297 38.6694 321.797 38.1694C320.197 37.6694 318.897 36.9694 317.797 36.0694C316.697 35.1694 315.897 33.9694 315.297 32.6694C314.797 31.3694 314.497 29.8694 314.497 28.1694C314.497 26.4694 314.797 24.9694 315.297 23.6694C315.897 22.3694 316.697 21.1694 317.797 20.2694C318.797 19.2694 320.197 18.5694 321.797 18.1694ZM324.497 33.5694C325.297 33.8694 326.097 33.9694 327.097 33.9694C328.097 33.9694 328.997 33.8694 329.697 33.5694C330.397 33.2694 331.097 32.9694 331.597 32.4694C332.097 31.9694 332.497 31.3694 332.797 30.6694C333.097 29.9694 333.197 29.0694 333.197 28.1694C333.197 27.1694 333.097 26.3694 332.797 25.5694C332.497 24.8694 332.097 24.2694 331.597 23.7694C331.097 23.2694 330.497 22.8694 329.697 22.6694C328.897 22.3694 328.097 22.2694 327.097 22.2694C326.097 22.2694 325.197 22.3694 324.497 22.6694C323.797 22.9694 323.097 23.2694 322.597 23.7694C322.097 24.2694 321.697 24.8694 321.397 25.5694C321.097 26.2694 320.997 27.1694 320.997 28.1694C320.997 29.1694 321.097 29.9694 321.397 30.6694C321.697 31.3694 322.097 31.9694 322.597 32.4694C323.097 32.9694 323.697 33.3694 324.497 33.5694Z" fill="currentColor"/>
  <path fill-rule="evenodd" clip-rule="evenodd" d="M293.497 30.6694C293.797 31.3694 294.097 31.9694 294.597 32.4694C295.097 32.9694 295.697 33.3694 296.397 33.5694C297.097 33.8694 297.997 33.9694 298.897 33.9694H299.097C299.897 33.9694 300.597 33.8694 301.197 33.6694C301.797 33.4694 302.397 33.2694 302.897 32.8694C303.297 32.5694 303.697 32.2694 303.997 31.7694C304.297 31.3694 304.497 30.8694 304.697 30.3694C304.797 30.0694 305.097 29.8694 305.397 29.8694H310.597C310.697 29.8694 310.697 29.8694 310.797 29.8694C311.197 29.9694 311.497 30.3694 311.397 30.7694C311.097 31.9694 310.697 32.9694 310.097 33.9694C309.497 34.8694 308.697 35.7694 307.797 36.3694C306.697 37.0694 305.497 37.6694 303.997 38.0694C302.597 38.4694 300.997 38.6694 299.197 38.6694H298.997C296.997 38.6694 295.297 38.4694 293.797 37.9694C292.197 37.4694 290.897 36.7694 289.797 35.8694C288.697 34.9694 287.897 33.7694 287.397 32.4694C286.897 31.1694 286.597 29.6694 286.597 27.9694C286.597 26.2694 286.897 24.7694 287.397 23.4694C287.897 22.1694 288.797 20.9694 289.797 20.0694C290.897 19.1694 292.197 18.4694 293.797 17.9694C295.297 17.4694 297.097 17.2694 298.997 17.2694H299.197C300.897 17.2694 302.397 17.4694 303.697 17.7694C305.097 18.0694 306.297 18.5694 307.297 19.2694C308.197 19.8694 308.997 20.5694 309.597 21.3694C310.197 22.1694 310.697 23.0694 310.997 24.0694C310.997 24.1694 311.097 24.2694 311.097 24.3694C311.097 24.7694 310.797 25.0694 310.397 25.0694H305.097C304.797 25.0694 304.597 24.9694 304.397 24.6694C304.197 24.2694 303.897 23.8694 303.597 23.5694C303.297 23.2694 302.897 22.9694 302.497 22.7694C302.097 22.4694 301.497 22.2694 300.997 22.1694C300.397 22.0694 299.797 21.9694 299.097 21.9694H298.897C297.897 21.9694 297.097 22.0694 296.397 22.3694C295.697 22.6694 295.097 22.9694 294.597 23.4694C294.097 23.9694 293.697 24.5694 293.497 25.2694C293.197 25.9694 293.097 26.8694 293.097 27.7694C293.097 29.0694 293.197 29.8694 293.497 30.6694Z" fill="currentColor"/>
  <path fill-rule="evenodd" clip-rule="evenodd" d="M279.597 30.9694C280.697 30.9694 281.697 31.3694 282.397 32.0694C282.697 32.4694 282.997 32.8694 283.197 33.3694C283.397 33.8694 283.497 34.2694 283.497 34.8694C283.497 35.3694 283.397 35.8694 283.197 36.3694C282.997 36.8694 282.697 37.2694 282.397 37.5694C281.997 37.9694 281.597 38.1694 281.097 38.3694C280.597 38.5694 280.097 38.6694 279.597 38.6694C279.097 38.6694 278.597 38.5694 278.097 38.3694C277.597 38.1694 277.197 37.8694 276.797 37.5694C276.497 37.1694 276.197 36.7694 275.997 36.2694C275.797 35.7694 275.697 35.3694 275.697 34.7694C275.697 34.2694 275.797 33.7694 275.997 33.3694C276.197 32.8694 276.497 32.4694 276.797 32.1694C277.197 31.7694 277.597 31.5694 278.097 31.3694C278.597 31.0694 279.097 30.9694 279.597 30.9694Z" fill="currentColor"/>
  <path fill-rule="evenodd" clip-rule="evenodd" d="M343.497 18.1694H348.197C348.597 18.1694 348.897 18.4694 348.897 18.8694V20.7694H349.097C349.497 20.2694 349.997 19.8694 350.497 19.4694C350.997 19.0694 351.697 18.7694 352.297 18.4694C352.997 18.1694 353.697 17.9694 354.497 17.8694C355.297 17.7694 356.097 17.6694 356.897 17.6694C357.697 17.6694 358.397 17.7694 359.197 17.8694C359.897 17.9694 360.597 18.1694 361.197 18.3694H361.297C361.897 18.5694 362.497 18.9694 362.897 19.3694C363.397 19.7694 363.797 20.2694 364.197 20.8694C364.697 20.3694 365.197 19.8694 365.797 19.4694C366.397 19.0694 366.997 18.7694 367.697 18.4694H367.797C368.497 18.1694 369.297 17.9694 370.197 17.8694C371.097 17.7694 371.997 17.6694 372.797 17.6694C373.997 17.6694 375.097 17.8694 376.197 18.1694C377.197 18.4694 378.097 18.9694 378.797 19.6694C379.497 20.2694 379.997 21.0694 380.397 21.9694C380.697 22.8694 380.897 23.8694 380.897 24.9694V37.2694C380.897 37.6694 380.597 37.9694 380.197 37.9694H375.397C374.997 37.9694 374.697 37.6694 374.697 37.2694V26.6694C374.697 25.9694 374.597 25.3694 374.397 24.9694C374.197 24.4694 373.897 24.0694 373.597 23.7694C373.197 23.4694 372.797 23.1694 372.297 23.0694C371.697 22.8694 371.097 22.7694 370.397 22.7694C369.697 22.7694 368.897 22.8694 368.197 23.1694C367.597 23.3694 366.997 23.6694 366.597 24.1694C366.197 24.5694 365.797 25.0694 365.597 25.6694C365.397 26.2694 365.297 26.9694 365.297 27.7694V37.3694C365.297 37.7694 364.997 38.0694 364.597 38.0694H359.797C359.397 38.0694 359.097 37.7694 359.097 37.3694V26.6694C359.097 25.9694 358.997 25.3694 358.797 24.9694C358.597 24.4694 358.297 24.0694 357.997 23.7694C357.597 23.4694 357.197 23.1694 356.697 23.0694C356.097 22.8694 355.497 22.7694 354.697 22.7694C353.997 22.7694 353.197 22.8694 352.497 23.1694C351.897 23.3694 351.297 23.6694 350.897 24.1694C350.497 24.5694 350.097 25.0694 349.897 25.6694C349.697 26.2694 349.597 26.9694 349.597 27.7694V37.3694C349.597 37.7694 349.297 38.0694 348.897 38.0694H344.097C343.697 38.0694 343.397 37.7694 343.397 37.3694V18.9694C342.797 18.5694 343.097 18.1694 343.497 18.1694Z" fill="currentColor"/>
  <path fill-rule="evenodd" clip-rule="evenodd" d="M32.2966 11.1694C36.7966 13.2694 40.7966 16.7694 42.5966 21.2694C43.9966 24.6694 44.0966 28.2694 42.8966 31.7694C42.0966 33.9694 40.7966 35.9694 39.0966 37.6694C37.3966 39.3694 35.3966 40.6694 33.1966 41.5694C29.6966 42.9694 25.6966 43.2694 21.8966 41.9694C16.8966 40.1694 13.1966 35.6694 11.2966 30.6694C10.4966 28.4694 9.99656 26.1694 9.89656 23.8694C9.79656 21.5694 10.0966 19.3694 10.7966 17.2694C11.9966 13.9694 14.2966 11.2694 17.9966 9.86938C22.0966 8.36938 27.4966 8.96938 32.2966 11.1694ZM55.7966 30.0694C57.9966 11.6694 30.8966 -3.33062 13.6966 0.669378C-1.00344 4.16938 -2.50345 20.5694 2.79655 33.7694C7.29655 45.1694 15.2966 52.1694 26.3966 52.1694C38.8966 52.2694 54.2966 43.2694 55.7966 30.0694Z" fill="url(#paint0_linear)"/>
  <path class="logo_special_part" fill-rule="evenodd" clip-rule="evenodd" d="M32.2966 11.1694C36.7966 13.2694 40.7966 16.7694 42.5966 21.2694C43.9966 24.6694 44.0966 28.2694 42.8966 31.7694C42.0966 33.9694 40.7966 35.9694 39.0966 37.6694C37.3966 39.3694 35.3966 40.6694 33.1966 41.5694C29.6966 42.9694 25.6966 43.2694 21.8966 41.9694C16.8966 40.1694 13.1966 35.6694 11.2966 30.6694C10.4966 28.4694 9.99656 26.1694 9.89656 23.8694C9.79656 21.5694 10.0966 19.3694 10.7966 17.2694C11.9966 13.9694 14.2966 11.2694 17.9966 9.86938C22.0966 8.36938 27.4966 8.96938 32.2966 11.1694ZM55.7966 30.0694C57.9966 11.6694 30.8966 -3.33062 13.6966 0.669378C-1.00344 4.16938 -2.50345 20.5694 2.79655 33.7694C7.29655 45.1694 15.2966 52.1694 26.3966 52.1694C38.8966 52.2694 54.2966 43.2694 55.7966 30.0694Z" fill="currentColor"/>
  <path opacity="0.4" fill-rule="evenodd" clip-rule="evenodd" d="M23.7966 52.0694C13.9966 51.0694 6.89655 44.2694 2.79655 33.7694C-2.50345 20.5694 -1.00344 4.16941 13.6966 0.669405C22.9966 -1.53059 35.0966 1.86941 43.9966 8.26941C33.4966 0.769405 16.8966 0.269405 9.19656 9.76941C-1.90344 23.5694 5.49656 50.0694 23.7966 52.0694Z" fill="url(#paint1_radial)"/>
  <path class="logo_special_part" opacity="0.4" fill-rule="evenodd" clip-rule="evenodd" d="M23.7966 52.0694C13.9966 51.0694 6.89655 44.2694 2.79655 33.7694C-2.50345 20.5694 -1.00344 4.16941 13.6966 0.669405C22.9966 -1.53059 35.0966 1.86941 43.9966 8.26941C33.4966 0.769405 16.8966 0.269405 9.19656 9.76941C-1.90344 23.5694 5.49656 50.0694 23.7966 52.0694Z" fill="currentColor"/>
  <path fill-rule="evenodd" clip-rule="evenodd" d="M44.1966 20.7694C39.6966 10.9694 27.4966 4.96942 16.9966 8.56942C0.0965586 14.2694 5.69656 40.1694 19.9966 46.3694C34.3966 52.6694 51.3966 36.9694 44.1966 20.7694ZM41.9966 21.5694C47.0966 34.0694 33.3966 45.5694 22.0966 41.4694C9.59656 36.9694 5.39656 15.3694 18.1966 10.4694C25.8966 7.56942 38.3966 12.5694 41.9966 21.5694Z" fill="currentColor"/>
  <defs>
    <linearGradient id="paint0_linear" x1="12.0899" y1="10.3286" x2="39.8321" y2="40.0535" gradientUnits="userSpaceOnUse">
      <stop stop-color="#2D50FA"/>
      <stop offset="0.15" stop-color="#2D50FA"/>
      <stop offset="0.3" stop-color="#2D50FA"/>
      <stop offset="1" stop-color="#FF009B"/>
    </linearGradient>
    <radialGradient id="paint1_radial" cx="0" cy="0" r="1" gradientUnits="userSpaceOnUse" gradientTransform="translate(22.3127 26.0482) scale(27.8765)">
      <stop stop-color="white"/>
      <stop offset="0.32" stop-color="#909090"/>
      <stop offset="1" stop-color="white"/>
    </radialGradient>
  </defs>
</svg>
