<svg width="50" height="50" viewBox="0 0 50 50" fill="none" xmlns="http://www.w3.org/2000/svg">
<path d="M39.7097 31.25C44.8503 31.25 49 35.4375 49 40.625C49 45.8125 44.8503 50 39.7097 50C34.569 50 30.4194 45.8125 30.4194 40.625C30.4194 39.875 30.5123 39.1875 30.6981 38.4688L17.1342 31.2813C15.431 33.1875 13.0155 34.375 10.2903 34.375C5.14968 34.375 1 30.1875 1 25C1 19.8125 5.14968 15.625 10.2903 15.625C13.0155 15.625 15.431 16.8437 17.1342 18.7187L30.6981 11.5313C30.5123 10.8125 30.4194 10.125 30.4194 9.375C30.4194 4.1875 34.569 0 39.7097 0C44.8503 0 49 4.1875 49 9.375C49 14.5625 44.8503 18.75 39.7097 18.75C36.9845 18.75 34.569 17.5313 32.8658 15.6563L19.3019 22.8438C19.677 24.2563 19.677 25.7437 19.3019 27.1562L32.8658 34.3437C34.569 32.4375 36.9845 31.25 39.7097 31.25Z" fill="black"/>
</svg>
